<svg xmlns="http://www.w3.org/2000/svg" viewBox="0 0 64 64">
  <defs>
    <linearGradient id="bg" x1="0" y1="0" x2="1" y2="1">
      <stop offset="0" stop-color="#0f7b6c"/>
      <stop offset="1" stop-color="#0b5bd3"/>
    </linearGradient>
  </defs>
  <rect width="64" height="64" rx="14" fill="#0b0b0b"/>
  <rect x="5" y="5" width="54" height="54" rx="11" fill="url(#bg)" opacity="0.15"/>
  <path d="M44.8 19.7c-2.9-1.8-6.8-2.7-11.8-2.7-7.3 0-12.1 2.2-14.5 6.7a7.9 7.9 0 0 0-.9 3.7c0 3 1 5.2 3.1 6.7 2 1.5 5 2.6 9 3.3l5.2 1c2 .4 3.3.8 4 1.3.7.4 1 1.1 1 2.1 0 1.4-.7 2.5-2.1 3.3-1.5.8-3.4 1.1-5.9 1.1-2.6 0-4.8-.5-6.5-1.4-1.7-.9-2.8-2.1-3.2-3.8h-6.5c.2 3.8 1.9 6.6 4.9 8.6 3 2 6.8 3 11.3 3 5.1 0 9.2-1.1 12.1-3.2 3-2.1 4.4-4.9 4.4-8.3 0-2.9-1-5.1-2.9-6.6-2-1.6-4.9-2.7-8.8-3.5l-5.4-1.1c-2-.4-3.4-.8-4.1-1.2-.7-.4-1.1-1.1-1.1-2.1s.5-2 1.6-2.8c1.1-.7 2.8-1.1 5.1-1.1 2.4 0 4.3.4 5.8 1.2 1.5.8 2.4 1.9 2.7 3.4h6.5c-.4-3.3-2-5.8-4.9-7.6z" fill="#f4f4f4"/>
</svg>
