<?xml version="1.0" encoding="UTF-8"?>
<svg xmlns="http://www.w3.org/2000/svg" width="1600" height="900" viewBox="0 0 1600 900">
  <defs>
    <linearGradient id="bg-accessibility-checklist" x1="0" y1="0" x2="1" y2="1">
      <stop offset="0%" stop-color="#0b0f1a"/>
      <stop offset="60%" stop-color="#111827"/>
      <stop offset="100%" stop-color="#0f172a"/>
    </linearGradient>
    <radialGradient id="glow-accessibility-checklist" cx="0.75" cy="0.2" r="0.9">
      <stop offset="0%" stop-color="#22d3ee" stop-opacity="0.45"/>
      <stop offset="100%" stop-color="#22d3ee" stop-opacity="0"/>
    </radialGradient>
  </defs>
  <rect width="1600" height="900" fill="url(#bg-accessibility-checklist)"/>
  <rect width="1600" height="900" fill="url(#glow-accessibility-checklist)"/>
  <g stroke="rgba(255,255,255,0.05)" stroke-width="1">
    <line x1="0" y1="0" x2="0" y2="900"/>
    <line x1="160" y1="0" x2="160" y2="900"/>
    <line x1="320" y1="0" x2="320" y2="900"/>
    <line x1="480" y1="0" x2="480" y2="900"/>
    <line x1="640" y1="0" x2="640" y2="900"/>
    <line x1="800" y1="0" x2="800" y2="900"/>
    <line x1="960" y1="0" x2="960" y2="900"/>
    <line x1="1120" y1="0" x2="1120" y2="900"/>
    <line x1="1280" y1="0" x2="1280" y2="900"/>
    <line x1="1440" y1="0" x2="1440" y2="900"/>
    <line x1="1600" y1="0" x2="1600" y2="900"/>
    <line x1="0" y1="0" x2="1600" y2="0"/>
    <line x1="0" y1="120" x2="1600" y2="120"/>
    <line x1="0" y1="240" x2="1600" y2="240"/>
    <line x1="0" y1="360" x2="1600" y2="360"/>
    <line x1="0" y1="480" x2="1600" y2="480"/>
    <line x1="0" y1="600" x2="1600" y2="600"/>
    <line x1="0" y1="720" x2="1600" y2="720"/>
    <line x1="0" y1="840" x2="1600" y2="840"/>
  </g>
  <g fill="none" stroke="#22d3ee" stroke-width="2" opacity="0.55">
    <path d="M 755.8 526.9 A 294.0 294.0 0 0 1 482.7 475.6"/>
    <path d="M 799.8 590.1 A 282.8 282.8 0 0 1 420.8 574.8"/>
    <path d="M 1073.0 458.2 A 145.6 145.6 0 0 1 852.5 430.8"/>
  </g>
  <g stroke="rgba(255,255,255,0.12)" stroke-width="2">
    <line x1="67.4" y1="341.4" x2="1500.0" y2="-147.4"/>
    <line x1="-4.7" y1="867.2" x2="1033.2" y2="214.4"/>
    <line x1="325.1" y1="760.1" x2="1473.6" y2="184.5"/>
    <line x1="14.3" y1="682.7" x2="1221.0" y2="211.9"/>
    <line x1="72.0" y1="496.0" x2="1215.9" y2="196.2"/>
  </g>
  <g fill="none" stroke="rgba(255,255,255,0.18)" stroke-width="2">
    <rect x="295.3" y="346.8" width="286.8" height="146.1" rx="18"/>
    <rect x="505.3" y="599.5" width="297.1" height="167.0" rx="18"/>
    <rect x="124.3" y="378.0" width="227.1" height="249.4" rx="18"/>
    <rect x="1024.5" y="574.0" width="375.1" height="241.6" rx="18"/>
  </g>
  <g fill="#22d3ee" opacity="0.22">
    <rect x="752.3" y="474.8" width="288.6" height="37.3" rx="18.7"/>
    <rect x="700.3" y="721.6" width="291.9" height="44.2" rx="22.1"/>
    <rect x="1322.9" y="606.0" width="235.9" height="54.7" rx="27.3"/>
    <rect x="452.4" y="700.0" width="279.9" height="27.2" rx="13.6"/>
  </g>
  <text x="100" y="140" font-family="Sora, sans-serif" font-size="44" fill="rgba(255,255,255,0.9)" letter-spacing="2">Доступность UX</text>
  <text x="100" y="190" font-family="IBM Plex Mono, monospace" font-size="14" fill="rgba(255,255,255,0.6)" letter-spacing="4">SIGIDINGO / BLOG</text>
</svg>