<?xml version="1.0" encoding="UTF-8"?>
<svg xmlns="http://www.w3.org/2000/svg" width="1600" height="900" viewBox="0 0 1600 900">
  <defs>
    <linearGradient id="bg-activation" x1="0" y1="0" x2="1" y2="1">
      <stop offset="0%" stop-color="#0b0f14"/>
      <stop offset="55%" stop-color="#0f172a"/>
      <stop offset="100%" stop-color="#0b1322"/>
    </linearGradient>
    <radialGradient id="glow-activation" cx="0.2" cy="0.8" r="0.9">
      <stop offset="0%" stop-color="#38bdf8" stop-opacity="0.45"/>
      <stop offset="100%" stop-color="#38bdf8" stop-opacity="0"/>
    </radialGradient>
  </defs>
  <rect width="1600" height="900" fill="url(#bg-activation)"/>
  <rect width="1600" height="900" fill="url(#glow-activation)"/>
  <g stroke="rgba(255,255,255,0.05)" stroke-width="1">
    <line x1="0" y1="0" x2="0" y2="900"/>
    <line x1="160" y1="0" x2="160" y2="900"/>
    <line x1="320" y1="0" x2="320" y2="900"/>
    <line x1="480" y1="0" x2="480" y2="900"/>
    <line x1="640" y1="0" x2="640" y2="900"/>
    <line x1="800" y1="0" x2="800" y2="900"/>
    <line x1="960" y1="0" x2="960" y2="900"/>
    <line x1="1120" y1="0" x2="1120" y2="900"/>
    <line x1="1280" y1="0" x2="1280" y2="900"/>
    <line x1="1440" y1="0" x2="1440" y2="900"/>
    <line x1="1600" y1="0" x2="1600" y2="900"/>
    <line x1="0" y1="0" x2="1600" y2="0"/>
    <line x1="0" y1="200" x2="1600" y2="200"/>
    <line x1="0" y1="400" x2="1600" y2="400"/>
    <line x1="0" y1="600" x2="1600" y2="600"/>
    <line x1="0" y1="800" x2="1600" y2="800"/>
    <line x1="0" y1="900" x2="1600" y2="900"/>
  </g>
  <g fill="none" stroke="rgba(255,255,255,0.22)" stroke-width="2">
    <path d="M 200 620 L 360 480 L 520 620 L 680 480 L 840 620"/>
    <path d="M 860 260 L 1040 140 L 1220 260 L 1400 140"/>
    <rect x="240" y="250" width="360" height="200" rx="26"/>
    <rect x="900" y="360" width="420" height="220" rx="28"/>
  </g>
  <g stroke="#38bdf8" stroke-width="2" opacity="0.7" fill="none">
    <path d="M 240 700 C 420 620 560 620 720 700"/>
    <path d="M 940 520 C 1120 460 1280 460 1420 520"/>
  </g>
  <g fill="#38bdf8" opacity="0.2">
    <circle cx="360" cy="320" r="58"/>
    <circle cx="1120" cy="460" r="68"/>
    <rect x="260" y="520" width="220" height="32" rx="16"/>
    <rect x="980" y="260" width="260" height="30" rx="15"/>
  </g>
  <g stroke="rgba(255,255,255,0.14)" stroke-width="2">
    <line x1="120" y1="120" x2="880" y2="120"/>
    <line x1="720" y1="760" x2="1500" y2="560"/>
  </g>
  <text x="100" y="130" font-family="Sora, sans-serif" font-size="42" fill="rgba(255,255,255,0.9)" letter-spacing="2">Activation Metrics</text>
  <text x="100" y="180" font-family="IBM Plex Mono, monospace" font-size="14" fill="rgba(255,255,255,0.6)" letter-spacing="4">SIGIDINGO / BLOG</text>
</svg>
