<?xml version="1.0" encoding="UTF-8"?>
<svg xmlns="http://www.w3.org/2000/svg" width="1600" height="900" viewBox="0 0 1600 900">
<title>Activation Metrics — cover</title>
<rect width="1600" height="900" fill="#000000"/>
<rect x="487" y="360" width="22" height="11" fill="#e8e8e8" shape-rendering="crispEdges"/>
<rect x="476" y="371" width="44" height="11" fill="#e8e8e8" shape-rendering="crispEdges"/>
<rect x="465" y="382" width="66" height="11" fill="#e8e8e8" shape-rendering="crispEdges"/>
<rect x="454" y="393" width="88" height="11" fill="#e8e8e8" shape-rendering="crispEdges"/>
<rect x="454" y="404" width="88" height="11" fill="#e8e8e8" shape-rendering="crispEdges"/>
<rect x="454" y="415" width="22" height="11" fill="#e8e8e8" shape-rendering="crispEdges"/>
<rect x="487" y="415" width="22" height="11" fill="#e8e8e8" shape-rendering="crispEdges"/>
<rect x="520" y="415" width="22" height="11" fill="#e8e8e8" shape-rendering="crispEdges"/>
<rect x="443" y="426" width="110" height="11" fill="#e8e8e8" shape-rendering="crispEdges"/>
<rect x="443" y="437" width="110" height="11" fill="#e8e8e8" shape-rendering="crispEdges"/>
<rect x="454" y="448" width="88" height="11" fill="#e8e8e8" shape-rendering="crispEdges"/>
<rect x="454" y="459" width="22" height="11" fill="#e8e8e8" shape-rendering="crispEdges"/>
<rect x="520" y="459" width="22" height="11" fill="#e8e8e8" shape-rendering="crispEdges"/>
<rect x="443" y="470" width="22" height="11" fill="#e8e8e8" shape-rendering="crispEdges"/>
<rect x="531" y="470" width="22" height="11" fill="#e8e8e8" shape-rendering="crispEdges"/>
<rect x="432" y="481" width="22" height="11" fill="#e8e8e8" shape-rendering="crispEdges"/>
<rect x="542" y="481" width="22" height="11" fill="#e8e8e8" shape-rendering="crispEdges"/>
<rect x="421" y="492" width="22" height="11" fill="#e8e8e8" shape-rendering="crispEdges"/>
<rect x="553" y="492" width="22" height="11" fill="#e8e8e8" shape-rendering="crispEdges"/>
<rect x="421" y="503" width="11" height="11" fill="#e8e8e8" shape-rendering="crispEdges"/>
<rect x="564" y="503" width="11" height="11" fill="#e8e8e8" shape-rendering="crispEdges"/>
<rect x="842" y="382" width="33" height="11" fill="#e8e8e8" shape-rendering="crispEdges"/>
<rect x="820" y="393" width="33" height="11" fill="#e8e8e8" shape-rendering="crispEdges"/>
<rect x="798" y="404" width="33" height="11" fill="#e8e8e8" shape-rendering="crispEdges"/>
<rect x="776" y="415" width="33" height="11" fill="#e8e8e8" shape-rendering="crispEdges"/>
<rect x="754" y="426" width="33" height="11" fill="#e8e8e8" shape-rendering="crispEdges"/>
<rect x="743" y="437" width="22" height="11" fill="#e8e8e8" shape-rendering="crispEdges"/>
<rect x="743" y="448" width="22" height="11" fill="#e8e8e8" shape-rendering="crispEdges"/>
<rect x="743" y="459" width="22" height="11" fill="#e8e8e8" shape-rendering="crispEdges"/>
<rect x="743" y="470" width="22" height="11" fill="#e8e8e8" shape-rendering="crispEdges"/>
<rect x="743" y="481" width="22" height="11" fill="#e8e8e8" shape-rendering="crispEdges"/>
<rect x="710" y="492" width="165" height="11" fill="#e8e8e8" shape-rendering="crispEdges"/>
<rect x="875" y="503" width="11" height="11" fill="#e8e8e8" shape-rendering="crispEdges"/>
<rect x="1065" y="371" width="66" height="11" fill="#e8e8e8" shape-rendering="crispEdges"/>
<rect x="1043" y="382" width="110" height="11" fill="#e8e8e8" shape-rendering="crispEdges"/>
<rect x="1032" y="393" width="44" height="11" fill="#e8e8e8" shape-rendering="crispEdges"/>
<rect x="1120" y="393" width="44" height="11" fill="#e8e8e8" shape-rendering="crispEdges"/>
<rect x="1032" y="404" width="33" height="11" fill="#e8e8e8" shape-rendering="crispEdges"/>
<rect x="1076" y="404" width="44" height="11" fill="#e8e8e8" shape-rendering="crispEdges"/>
<rect x="1131" y="404" width="33" height="11" fill="#e8e8e8" shape-rendering="crispEdges"/>
<rect x="1021" y="415" width="33" height="11" fill="#e8e8e8" shape-rendering="crispEdges"/>
<rect x="1065" y="415" width="66" height="11" fill="#e8e8e8" shape-rendering="crispEdges"/>
<rect x="1142" y="415" width="33" height="11" fill="#e8e8e8" shape-rendering="crispEdges"/>
<rect x="1021" y="426" width="33" height="11" fill="#e8e8e8" shape-rendering="crispEdges"/>
<rect x="1065" y="426" width="22" height="11" fill="#e8e8e8" shape-rendering="crispEdges"/>
<rect x="1109" y="426" width="22" height="11" fill="#e8e8e8" shape-rendering="crispEdges"/>
<rect x="1142" y="426" width="33" height="11" fill="#e8e8e8" shape-rendering="crispEdges"/>
<rect x="1021" y="437" width="33" height="11" fill="#e8e8e8" shape-rendering="crispEdges"/>
<rect x="1065" y="437" width="22" height="11" fill="#e8e8e8" shape-rendering="crispEdges"/>
<rect x="1109" y="437" width="22" height="11" fill="#e8e8e8" shape-rendering="crispEdges"/>
<rect x="1142" y="437" width="33" height="11" fill="#e8e8e8" shape-rendering="crispEdges"/>
<rect x="1021" y="448" width="33" height="11" fill="#e8e8e8" shape-rendering="crispEdges"/>
<rect x="1065" y="448" width="66" height="11" fill="#e8e8e8" shape-rendering="crispEdges"/>
<rect x="1142" y="448" width="33" height="11" fill="#e8e8e8" shape-rendering="crispEdges"/>
<rect x="1032" y="459" width="33" height="11" fill="#e8e8e8" shape-rendering="crispEdges"/>
<rect x="1076" y="459" width="44" height="11" fill="#e8e8e8" shape-rendering="crispEdges"/>
<rect x="1131" y="459" width="33" height="11" fill="#e8e8e8" shape-rendering="crispEdges"/>
<rect x="1032" y="470" width="44" height="11" fill="#e8e8e8" shape-rendering="crispEdges"/>
<rect x="1120" y="470" width="44" height="11" fill="#e8e8e8" shape-rendering="crispEdges"/>
<rect x="1043" y="481" width="110" height="11" fill="#e8e8e8" shape-rendering="crispEdges"/>
<rect x="1065" y="492" width="66" height="11" fill="#e8e8e8" shape-rendering="crispEdges"/>
</svg>
