<?xml version="1.0" encoding="UTF-8"?>
<svg xmlns="http://www.w3.org/2000/svg" width="1600" height="900" viewBox="0 0 1600 900">
<title>AI в продукте — cover</title>
<rect width="1600" height="900" fill="#000000"/>
<rect x="443" y="360" width="132" height="11" fill="#e8e8e8" shape-rendering="crispEdges"/>
<rect x="443" y="371" width="11" height="11" fill="#e8e8e8" shape-rendering="crispEdges"/>
<rect x="564" y="371" width="11" height="11" fill="#e8e8e8" shape-rendering="crispEdges"/>
<rect x="421" y="382" width="33" height="11" fill="#e8e8e8" shape-rendering="crispEdges"/>
<rect x="465" y="382" width="88" height="11" fill="#e8e8e8" shape-rendering="crispEdges"/>
<rect x="564" y="382" width="22" height="11" fill="#e8e8e8" shape-rendering="crispEdges"/>
<rect x="421" y="393" width="33" height="11" fill="#e8e8e8" shape-rendering="crispEdges"/>
<rect x="465" y="393" width="88" height="11" fill="#e8e8e8" shape-rendering="crispEdges"/>
<rect x="564" y="393" width="22" height="11" fill="#e8e8e8" shape-rendering="crispEdges"/>
<rect x="421" y="404" width="33" height="11" fill="#e8e8e8" shape-rendering="crispEdges"/>
<rect x="465" y="404" width="22" height="11" fill="#e8e8e8" shape-rendering="crispEdges"/>
<rect x="531" y="404" width="22" height="11" fill="#e8e8e8" shape-rendering="crispEdges"/>
<rect x="564" y="404" width="22" height="11" fill="#e8e8e8" shape-rendering="crispEdges"/>
<rect x="421" y="415" width="33" height="11" fill="#e8e8e8" shape-rendering="crispEdges"/>
<rect x="465" y="415" width="22" height="11" fill="#e8e8e8" shape-rendering="crispEdges"/>
<rect x="531" y="415" width="22" height="11" fill="#e8e8e8" shape-rendering="crispEdges"/>
<rect x="564" y="415" width="22" height="11" fill="#e8e8e8" shape-rendering="crispEdges"/>
<rect x="421" y="426" width="33" height="11" fill="#e8e8e8" shape-rendering="crispEdges"/>
<rect x="465" y="426" width="22" height="11" fill="#e8e8e8" shape-rendering="crispEdges"/>
<rect x="531" y="426" width="22" height="11" fill="#e8e8e8" shape-rendering="crispEdges"/>
<rect x="564" y="426" width="22" height="11" fill="#e8e8e8" shape-rendering="crispEdges"/>
<rect x="421" y="437" width="33" height="11" fill="#e8e8e8" shape-rendering="crispEdges"/>
<rect x="465" y="437" width="22" height="11" fill="#e8e8e8" shape-rendering="crispEdges"/>
<rect x="531" y="437" width="22" height="11" fill="#e8e8e8" shape-rendering="crispEdges"/>
<rect x="564" y="437" width="22" height="11" fill="#e8e8e8" shape-rendering="crispEdges"/>
<rect x="421" y="448" width="33" height="11" fill="#e8e8e8" shape-rendering="crispEdges"/>
<rect x="465" y="448" width="88" height="11" fill="#e8e8e8" shape-rendering="crispEdges"/>
<rect x="564" y="448" width="22" height="11" fill="#e8e8e8" shape-rendering="crispEdges"/>
<rect x="421" y="459" width="33" height="11" fill="#e8e8e8" shape-rendering="crispEdges"/>
<rect x="465" y="459" width="88" height="11" fill="#e8e8e8" shape-rendering="crispEdges"/>
<rect x="564" y="459" width="22" height="11" fill="#e8e8e8" shape-rendering="crispEdges"/>
<rect x="443" y="470" width="11" height="11" fill="#e8e8e8" shape-rendering="crispEdges"/>
<rect x="564" y="470" width="11" height="11" fill="#e8e8e8" shape-rendering="crispEdges"/>
<rect x="443" y="481" width="132" height="11" fill="#e8e8e8" shape-rendering="crispEdges"/>
<rect x="454" y="492" width="22" height="11" fill="#e8e8e8" shape-rendering="crispEdges"/>
<rect x="520" y="492" width="22" height="11" fill="#e8e8e8" shape-rendering="crispEdges"/>
<rect x="454" y="503" width="22" height="11" fill="#e8e8e8" shape-rendering="crispEdges"/>
<rect x="520" y="503" width="22" height="11" fill="#e8e8e8" shape-rendering="crispEdges"/>
<rect x="776" y="360" width="66" height="11" fill="#e8e8e8" shape-rendering="crispEdges"/>
<rect x="765" y="371" width="88" height="11" fill="#e8e8e8" shape-rendering="crispEdges"/>
<rect x="754" y="382" width="110" height="11" fill="#e8e8e8" shape-rendering="crispEdges"/>
<rect x="754" y="393" width="110" height="11" fill="#e8e8e8" shape-rendering="crispEdges"/>
<rect x="754" y="404" width="110" height="11" fill="#e8e8e8" shape-rendering="crispEdges"/>
<rect x="754" y="415" width="110" height="11" fill="#e8e8e8" shape-rendering="crispEdges"/>
<rect x="754" y="426" width="110" height="11" fill="#e8e8e8" shape-rendering="crispEdges"/>
<rect x="765" y="437" width="88" height="11" fill="#e8e8e8" shape-rendering="crispEdges"/>
<rect x="765" y="448" width="88" height="11" fill="#e8e8e8" shape-rendering="crispEdges"/>
<rect x="776" y="459" width="66" height="11" fill="#e8e8e8" shape-rendering="crispEdges"/>
<rect x="776" y="470" width="66" height="11" fill="#e8e8e8" shape-rendering="crispEdges"/>
<rect x="776" y="481" width="66" height="11" fill="#e8e8e8" shape-rendering="crispEdges"/>
<rect x="776" y="492" width="66" height="11" fill="#e8e8e8" shape-rendering="crispEdges"/>
<rect x="787" y="503" width="44" height="11" fill="#e8e8e8" shape-rendering="crispEdges"/>
<rect x="787" y="514" width="44" height="11" fill="#e8e8e8" shape-rendering="crispEdges"/>
<rect x="798" y="525" width="22" height="11" fill="#e8e8e8" shape-rendering="crispEdges"/>
<rect x="1010" y="360" width="11" height="11" fill="#e8e8e8" shape-rendering="crispEdges"/>
<rect x="1010" y="371" width="22" height="11" fill="#e8e8e8" shape-rendering="crispEdges"/>
<rect x="1010" y="382" width="33" height="11" fill="#e8e8e8" shape-rendering="crispEdges"/>
<rect x="1010" y="393" width="44" height="11" fill="#e8e8e8" shape-rendering="crispEdges"/>
<rect x="1010" y="404" width="55" height="11" fill="#e8e8e8" shape-rendering="crispEdges"/>
<rect x="1010" y="415" width="66" height="11" fill="#e8e8e8" shape-rendering="crispEdges"/>
<rect x="1010" y="426" width="77" height="11" fill="#e8e8e8" shape-rendering="crispEdges"/>
<rect x="1010" y="437" width="88" height="11" fill="#e8e8e8" shape-rendering="crispEdges"/>
<rect x="1010" y="448" width="99" height="11" fill="#e8e8e8" shape-rendering="crispEdges"/>
<rect x="1010" y="459" width="110" height="11" fill="#e8e8e8" shape-rendering="crispEdges"/>
<rect x="1010" y="470" width="55" height="11" fill="#e8e8e8" shape-rendering="crispEdges"/>
<rect x="1076" y="470" width="22" height="11" fill="#e8e8e8" shape-rendering="crispEdges"/>
<rect x="1010" y="481" width="55" height="11" fill="#e8e8e8" shape-rendering="crispEdges"/>
<rect x="1087" y="481" width="22" height="11" fill="#e8e8e8" shape-rendering="crispEdges"/>
<rect x="1010" y="492" width="55" height="11" fill="#e8e8e8" shape-rendering="crispEdges"/>
</svg>
