<?xml version="1.0" encoding="UTF-8"?>
<svg xmlns="http://www.w3.org/2000/svg" width="1600" height="900" viewBox="0 0 1600 900">
  <defs>
    <linearGradient id="bg-ai-in-product" x1="0" y1="0" x2="1" y2="1">
      <stop offset="0%" stop-color="#0b1116"/>
      <stop offset="60%" stop-color="#0f172a"/>
      <stop offset="100%" stop-color="#1f2937"/>
    </linearGradient>
    <radialGradient id="glow-ai-in-product" cx="0.75" cy="0.2" r="0.9">
      <stop offset="0%" stop-color="#34d399" stop-opacity="0.45"/>
      <stop offset="100%" stop-color="#34d399" stop-opacity="0"/>
    </radialGradient>
  </defs>
  <rect width="1600" height="900" fill="url(#bg-ai-in-product)"/>
  <rect width="1600" height="900" fill="url(#glow-ai-in-product)"/>
  <g stroke="rgba(255,255,255,0.05)" stroke-width="1">
    <line x1="0" y1="0" x2="0" y2="900"/>
    <line x1="160" y1="0" x2="160" y2="900"/>
    <line x1="320" y1="0" x2="320" y2="900"/>
    <line x1="480" y1="0" x2="480" y2="900"/>
    <line x1="640" y1="0" x2="640" y2="900"/>
    <line x1="800" y1="0" x2="800" y2="900"/>
    <line x1="960" y1="0" x2="960" y2="900"/>
    <line x1="1120" y1="0" x2="1120" y2="900"/>
    <line x1="1280" y1="0" x2="1280" y2="900"/>
    <line x1="1440" y1="0" x2="1440" y2="900"/>
    <line x1="1600" y1="0" x2="1600" y2="900"/>
    <line x1="0" y1="0" x2="1600" y2="0"/>
    <line x1="0" y1="120" x2="1600" y2="120"/>
    <line x1="0" y1="240" x2="1600" y2="240"/>
    <line x1="0" y1="360" x2="1600" y2="360"/>
    <line x1="0" y1="480" x2="1600" y2="480"/>
    <line x1="0" y1="600" x2="1600" y2="600"/>
    <line x1="0" y1="720" x2="1600" y2="720"/>
    <line x1="0" y1="840" x2="1600" y2="840"/>
  </g>
  <g fill="none" stroke="#34d399" stroke-width="2" opacity="0.55">
    <path d="M 1471.0 517.8 A 197.0 197.0 0 0 1 1377.1 636.4"/>
    <path d="M 798.8 604.8 A 160.5 160.5 0 0 1 616.9 680.4"/>
    <path d="M 1115.1 347.8 A 183.4 183.4 0 0 1 974.1 468.2"/>
  </g>
  <g stroke="rgba(255,255,255,0.12)" stroke-width="2">
    <line x1="284.3" y1="582.1" x2="1372.3" y2="276.6"/>
    <line x1="-73.4" y1="567.3" x2="869.0" y2="-79.0"/>
    <line x1="88.2" y1="685.3" x2="1117.9" y2="384.6"/>
    <line x1="282.3" y1="100.4" x2="1705.9" y2="-167.8"/>
    <line x1="28.7" y1="257.1" x2="1202.6" y2="-44.4"/>
  </g>
  <g fill="none" stroke="rgba(255,255,255,0.18)" stroke-width="2">
    <rect x="347.4" y="151.6" width="349.8" height="101.3" rx="18"/>
    <rect x="1139.0" y="200.0" width="195.4" height="235.3" rx="18"/>
    <rect x="1066.2" y="547.3" width="262.9" height="252.2" rx="18"/>
    <rect x="896.9" y="678.2" width="311.5" height="184.4" rx="18"/>
  </g>
  <g fill="#34d399" opacity="0.22">
    <rect x="1125.3" y="292.0" width="277.0" height="39.8" rx="19.9"/>
    <rect x="702.3" y="319.8" width="207.3" height="45.6" rx="22.8"/>
    <rect x="474.0" y="358.9" width="217.8" height="51.5" rx="25.8"/>
    <rect x="1041.2" y="576.3" width="288.5" height="38.9" rx="19.4"/>
  </g>
  <text x="100" y="140" font-family="Sora, sans-serif" font-size="44" fill="rgba(255,255,255,0.9)" letter-spacing="2">AI в продукте</text>
  <text x="100" y="190" font-family="IBM Plex Mono, monospace" font-size="14" fill="rgba(255,255,255,0.6)" letter-spacing="4">SIGIDINGO / BLOG</text>
</svg>