<?xml version="1.0" encoding="UTF-8"?>
<svg xmlns="http://www.w3.org/2000/svg" width="1600" height="900" viewBox="0 0 1600 900">
  <defs>
    <linearGradient id="bg-analytics-for-designers" x1="0" y1="0" x2="1" y2="1">
      <stop offset="0%" stop-color="#0a0b12"/>
      <stop offset="60%" stop-color="#111827"/>
      <stop offset="100%" stop-color="#1e1b4b"/>
    </linearGradient>
    <radialGradient id="glow-analytics-for-designers" cx="0.75" cy="0.2" r="0.9">
      <stop offset="0%" stop-color="#a78bfa" stop-opacity="0.45"/>
      <stop offset="100%" stop-color="#a78bfa" stop-opacity="0"/>
    </radialGradient>
  </defs>
  <rect width="1600" height="900" fill="url(#bg-analytics-for-designers)"/>
  <rect width="1600" height="900" fill="url(#glow-analytics-for-designers)"/>
  <g stroke="rgba(255,255,255,0.05)" stroke-width="1">
    <line x1="0" y1="0" x2="0" y2="900"/>
    <line x1="160" y1="0" x2="160" y2="900"/>
    <line x1="320" y1="0" x2="320" y2="900"/>
    <line x1="480" y1="0" x2="480" y2="900"/>
    <line x1="640" y1="0" x2="640" y2="900"/>
    <line x1="800" y1="0" x2="800" y2="900"/>
    <line x1="960" y1="0" x2="960" y2="900"/>
    <line x1="1120" y1="0" x2="1120" y2="900"/>
    <line x1="1280" y1="0" x2="1280" y2="900"/>
    <line x1="1440" y1="0" x2="1440" y2="900"/>
    <line x1="1600" y1="0" x2="1600" y2="900"/>
    <line x1="0" y1="0" x2="1600" y2="0"/>
    <line x1="0" y1="120" x2="1600" y2="120"/>
    <line x1="0" y1="240" x2="1600" y2="240"/>
    <line x1="0" y1="360" x2="1600" y2="360"/>
    <line x1="0" y1="480" x2="1600" y2="480"/>
    <line x1="0" y1="600" x2="1600" y2="600"/>
    <line x1="0" y1="720" x2="1600" y2="720"/>
    <line x1="0" y1="840" x2="1600" y2="840"/>
  </g>
  <g fill="none" stroke="#a78bfa" stroke-width="2" opacity="0.5">
    <path d="M 670.6 529.1 A 273.2 273.2 0 0 1 473.1 386.4"/>
    <path d="M 178.5 193.2 A 128.3 128.3 0 0 1 242.6 61.2"/>
    <path d="M 927.2 745.3 A 184.5 184.5 0 0 1 827.7 871.4"/>
  </g>
  <g stroke="rgba(255,255,255,0.12)" stroke-width="2">
    <line x1="-33.4" y1="430.3" x2="1325.1" y2="11.3"/>
    <line x1="173.9" y1="234.4" x2="1266.9" y2="-10.0"/>
    <line x1="-93.6" y1="463.9" x2="1135.5" y2="-167.1"/>
    <line x1="222.5" y1="164.0" x2="1438.2" y2="-333.7"/>
    <line x1="-52.8" y1="889.2" x2="1298.2" y2="551.6"/>
  </g>
  <g fill="none" stroke="rgba(255,255,255,0.18)" stroke-width="2">
    <rect x="660.6" y="536.7" width="175.1" height="199.8" rx="18"/>
    <rect x="330.1" y="355.1" width="395.6" height="141.3" rx="18"/>
    <rect x="749.3" y="400.5" width="250.5" height="112.5" rx="18"/>
    <rect x="308.2" y="103.6" width="332.1" height="112.0" rx="18"/>
  </g>
  <g fill="#a78bfa" opacity="0.22">
    <rect x="762.3" y="642.7" width="291.6" height="46.2" rx="23.1"/>
    <rect x="253.1" y="156.2" width="170.6" height="32.9" rx="16.4"/>
    <rect x="1111.1" y="736.4" width="164.7" height="46.6" rx="23.3"/>
    <rect x="561.3" y="291.2" width="261.0" height="52.8" rx="26.4"/>
  </g>
  <text x="100" y="140" font-family="Sora, sans-serif" font-size="44" fill="rgba(255,255,255,0.9)" letter-spacing="2">Аналитика</text>
  <text x="100" y="190" font-family="IBM Plex Mono, monospace" font-size="14" fill="rgba(255,255,255,0.6)" letter-spacing="4">SIGIDINGO / BLOG</text>
</svg>