<?xml version="1.0" encoding="UTF-8"?>
<svg xmlns="http://www.w3.org/2000/svg" width="1600" height="900" viewBox="0 0 1600 900">
<title>Analytics for Designers — cover</title>
<rect width="1600" height="900" fill="#000000"/>
<rect x="432" y="382" width="22" height="11" fill="#e8e8e8" shape-rendering="crispEdges"/>
<rect x="432" y="393" width="22" height="11" fill="#e8e8e8" shape-rendering="crispEdges"/>
<rect x="432" y="404" width="22" height="11" fill="#e8e8e8" shape-rendering="crispEdges"/>
<rect x="509" y="404" width="22" height="11" fill="#e8e8e8" shape-rendering="crispEdges"/>
<rect x="432" y="415" width="22" height="11" fill="#e8e8e8" shape-rendering="crispEdges"/>
<rect x="509" y="415" width="22" height="11" fill="#e8e8e8" shape-rendering="crispEdges"/>
<rect x="432" y="426" width="22" height="11" fill="#e8e8e8" shape-rendering="crispEdges"/>
<rect x="509" y="426" width="22" height="11" fill="#e8e8e8" shape-rendering="crispEdges"/>
<rect x="432" y="437" width="22" height="11" fill="#e8e8e8" shape-rendering="crispEdges"/>
<rect x="465" y="437" width="22" height="11" fill="#e8e8e8" shape-rendering="crispEdges"/>
<rect x="509" y="437" width="22" height="11" fill="#e8e8e8" shape-rendering="crispEdges"/>
<rect x="432" y="448" width="22" height="11" fill="#e8e8e8" shape-rendering="crispEdges"/>
<rect x="465" y="448" width="22" height="11" fill="#e8e8e8" shape-rendering="crispEdges"/>
<rect x="509" y="448" width="22" height="11" fill="#e8e8e8" shape-rendering="crispEdges"/>
<rect x="432" y="459" width="22" height="11" fill="#e8e8e8" shape-rendering="crispEdges"/>
<rect x="465" y="459" width="22" height="11" fill="#e8e8e8" shape-rendering="crispEdges"/>
<rect x="509" y="459" width="22" height="11" fill="#e8e8e8" shape-rendering="crispEdges"/>
<rect x="553" y="459" width="22" height="11" fill="#e8e8e8" shape-rendering="crispEdges"/>
<rect x="432" y="470" width="22" height="11" fill="#e8e8e8" shape-rendering="crispEdges"/>
<rect x="465" y="470" width="22" height="11" fill="#e8e8e8" shape-rendering="crispEdges"/>
<rect x="509" y="470" width="22" height="11" fill="#e8e8e8" shape-rendering="crispEdges"/>
<rect x="553" y="470" width="22" height="11" fill="#e8e8e8" shape-rendering="crispEdges"/>
<rect x="432" y="481" width="22" height="11" fill="#e8e8e8" shape-rendering="crispEdges"/>
<rect x="465" y="481" width="22" height="11" fill="#e8e8e8" shape-rendering="crispEdges"/>
<rect x="509" y="481" width="22" height="11" fill="#e8e8e8" shape-rendering="crispEdges"/>
<rect x="553" y="481" width="22" height="11" fill="#e8e8e8" shape-rendering="crispEdges"/>
<rect x="432" y="492" width="22" height="11" fill="#e8e8e8" shape-rendering="crispEdges"/>
<rect x="465" y="492" width="22" height="11" fill="#e8e8e8" shape-rendering="crispEdges"/>
<rect x="509" y="492" width="22" height="11" fill="#e8e8e8" shape-rendering="crispEdges"/>
<rect x="553" y="492" width="22" height="11" fill="#e8e8e8" shape-rendering="crispEdges"/>
<rect x="410" y="503" width="154" height="11" fill="#e8e8e8" shape-rendering="crispEdges"/>
<rect x="410" y="514" width="154" height="11" fill="#e8e8e8" shape-rendering="crispEdges"/>
<rect x="765" y="382" width="66" height="11" fill="#e8e8e8" shape-rendering="crispEdges"/>
<rect x="743" y="393" width="110" height="11" fill="#e8e8e8" shape-rendering="crispEdges"/>
<rect x="732" y="404" width="55" height="11" fill="#e8e8e8" shape-rendering="crispEdges"/>
<rect x="809" y="404" width="55" height="11" fill="#e8e8e8" shape-rendering="crispEdges"/>
<rect x="721" y="415" width="44" height="11" fill="#e8e8e8" shape-rendering="crispEdges"/>
<rect x="776" y="415" width="44" height="11" fill="#e8e8e8" shape-rendering="crispEdges"/>
<rect x="831" y="415" width="44" height="11" fill="#e8e8e8" shape-rendering="crispEdges"/>
<rect x="721" y="426" width="44" height="11" fill="#e8e8e8" shape-rendering="crispEdges"/>
<rect x="776" y="426" width="44" height="11" fill="#e8e8e8" shape-rendering="crispEdges"/>
<rect x="831" y="426" width="44" height="11" fill="#e8e8e8" shape-rendering="crispEdges"/>
<rect x="721" y="437" width="44" height="11" fill="#e8e8e8" shape-rendering="crispEdges"/>
<rect x="776" y="437" width="44" height="11" fill="#e8e8e8" shape-rendering="crispEdges"/>
<rect x="831" y="437" width="44" height="11" fill="#e8e8e8" shape-rendering="crispEdges"/>
<rect x="721" y="448" width="44" height="11" fill="#e8e8e8" shape-rendering="crispEdges"/>
<rect x="776" y="448" width="44" height="11" fill="#e8e8e8" shape-rendering="crispEdges"/>
<rect x="831" y="448" width="44" height="11" fill="#e8e8e8" shape-rendering="crispEdges"/>
<rect x="732" y="459" width="55" height="11" fill="#e8e8e8" shape-rendering="crispEdges"/>
<rect x="809" y="459" width="55" height="11" fill="#e8e8e8" shape-rendering="crispEdges"/>
<rect x="743" y="470" width="110" height="11" fill="#e8e8e8" shape-rendering="crispEdges"/>
<rect x="765" y="481" width="66" height="11" fill="#e8e8e8" shape-rendering="crispEdges"/>
<rect x="1142" y="382" width="33" height="11" fill="#e8e8e8" shape-rendering="crispEdges"/>
<rect x="1120" y="393" width="33" height="11" fill="#e8e8e8" shape-rendering="crispEdges"/>
<rect x="1098" y="404" width="33" height="11" fill="#e8e8e8" shape-rendering="crispEdges"/>
<rect x="1076" y="415" width="33" height="11" fill="#e8e8e8" shape-rendering="crispEdges"/>
<rect x="1054" y="426" width="33" height="11" fill="#e8e8e8" shape-rendering="crispEdges"/>
<rect x="1043" y="437" width="22" height="11" fill="#e8e8e8" shape-rendering="crispEdges"/>
<rect x="1043" y="448" width="22" height="11" fill="#e8e8e8" shape-rendering="crispEdges"/>
<rect x="1043" y="459" width="22" height="11" fill="#e8e8e8" shape-rendering="crispEdges"/>
<rect x="1043" y="470" width="22" height="11" fill="#e8e8e8" shape-rendering="crispEdges"/>
<rect x="1043" y="481" width="22" height="11" fill="#e8e8e8" shape-rendering="crispEdges"/>
<rect x="1010" y="492" width="165" height="11" fill="#e8e8e8" shape-rendering="crispEdges"/>
<rect x="1175" y="503" width="11" height="11" fill="#e8e8e8" shape-rendering="crispEdges"/>
</svg>
