<?xml version="1.0" encoding="UTF-8"?>
<svg xmlns="http://www.w3.org/2000/svg" width="1600" height="900" viewBox="0 0 1600 900">
  <defs>
    <linearGradient id="bg-11" x1="0" y1="0" x2="1" y2="1">
      <stop offset="0%" stop-color="#070A12"/>
      <stop offset="52%" stop-color="#0B1120"/>
      <stop offset="100%" stop-color="#05070D"/>
    </linearGradient>
    <radialGradient id="haloA-11" cx="0.04" cy="0.06" r="0.9">
      <stop offset="0%" stop-color="#F97316" stop-opacity="0.44"/>
      <stop offset="100%" stop-color="#F97316" stop-opacity="0"/>
    </radialGradient>
    <radialGradient id="haloB-11" cx="0.95" cy="0.95" r="0.95">
      <stop offset="0%" stop-color="#F43F5E" stop-opacity="0.34"/>
      <stop offset="100%" stop-color="#F43F5E" stop-opacity="0"/>
    </radialGradient>
    <linearGradient id="beam-11" x1="0" y1="0" x2="1" y2="0">
      <stop offset="0%" stop-color="#FFD4BE" stop-opacity="0"/>
      <stop offset="40%" stop-color="#FFD4BE" stop-opacity="0.95"/>
      <stop offset="100%" stop-color="#FFD4BE" stop-opacity="0"/>
    </linearGradient>
    <filter id="soft-11" x="-20%" y="-20%" width="140%" height="140%">
      <feGaussianBlur stdDeviation="24"/>
    </filter>
  </defs>

  <rect width="1600" height="900" fill="url(#bg-11)"/>
  <rect width="1600" height="900" fill="url(#haloA-11)"/>
  <rect width="1600" height="900" fill="url(#haloB-11)"/>

  <g stroke="rgba(255,255,255,0.05)" stroke-width="1">
    <line x1="0" y1="90" x2="1600" y2="90"/>
    <line x1="0" y1="810" x2="1600" y2="810"/>
    <line x1="120" y1="0" x2="120" y2="900"/>
    <line x1="1480" y1="0" x2="1480" y2="900"/>
  </g>

  <g opacity="0.8">
    <path d="M0 156 L1600 673 L1600 900 L0 900 Z" fill="rgba(255,255,255,0.03)"/>
    <path d="M0 350 C320 232, 760 468, 1600 340" stroke="url(#beam-11)" stroke-width="2" fill="none"/>
    <path d="M0 640 C360 610, 840 690, 1600 650" stroke="rgba(255,255,255,0.17)" stroke-width="1" fill="none"/>
  </g>

  <rect x="90" y="110" width="1420" height="680" rx="36" fill="rgba(7,10,18,0.58)" stroke="rgba(255,255,255,0.14)"/>
  <path d="M130 212 H1470" stroke="url(#beam-11)" stroke-width="2"/>
  <path d="M130 690 H1470" stroke="url(#beam-11)" stroke-width="2"/>

  <g fill="none" stroke="rgba(255,255,255,0.16)">
    <rect x="140" y="160" width="230" height="54" rx="27"/>
    <rect x="1210" y="160" width="250" height="54" rx="27"/>
  </g>

  <text x="178" y="194" font-family="Consolas, monospace" font-size="18" letter-spacing="3" fill="rgba(255,255,255,0.68)">SIGIDINGO BLOG</text>
  <text x="1252" y="194" font-family="Consolas, monospace" font-size="18" letter-spacing="3" fill="#F97316">ARTICLE 11</text>

  <text x="140" y="420" font-family="Sora, Arial, sans-serif" font-weight="700" font-size="92" letter-spacing="1.2" fill="rgba(255,255,255,0.98)">Dark Patterns</text>
  <text x="142" y="482" font-family="Consolas, monospace" font-size="22" letter-spacing="4" fill="rgba(255,255,255,0.58)">UX/UI  •  PRODUCT  •  PRACTICE</text>

  <g>
    <rect x="140" y="540" width="460" height="9" rx="4.5" fill="rgba(255,255,255,0.12)"/>
    <rect x="140" y="540" width="390" height="9" rx="4.5" fill="#F43F5E"/>
    <rect x="140" y="570" width="350" height="9" rx="4.5" fill="rgba(255,255,255,0.12)"/>
    <rect x="140" y="570" width="208" height="9" rx="4.5" fill="#F97316"/>
  </g>

  <g opacity="0.9">
    <circle cx="1270" cy="470" r="140" fill="none" stroke="#FFD4BE" stroke-width="2"/>
    <circle cx="1270" cy="470" r="102" fill="none" stroke="rgba(255,255,255,0.24)" stroke-width="2"/>
    <circle cx="1270" cy="470" r="64" fill="none" stroke="#F97316" stroke-width="2"/>
    <circle cx="1270" cy="470" r="24" fill="#F97316" fill-opacity="0.28"/>
    <circle cx="1326" cy="412" r="18" fill="#F43F5E" fill-opacity="0.45" filter="url(#soft-11)"/>
  </g>

  <text x="140" y="735" font-family="Consolas, monospace" font-size="18" letter-spacing="3" fill="rgba(255,255,255,0.62)">BLOG COVER 1600x900</text>
</svg>
