<?xml version="1.0" encoding="UTF-8"?>
<svg xmlns="http://www.w3.org/2000/svg" width="1600" height="900" viewBox="0 0 1600 900">
  <defs>
    <linearGradient id="bg-11" x1="0" y1="0" x2="1" y2="1">
      <stop offset="0%" stop-color="#03050B"/>
      <stop offset="48%" stop-color="#0A1120"/>
      <stop offset="100%" stop-color="#02040A"/>
    </linearGradient>

    <radialGradient id="glowA-11" cx="0.08" cy="0.1" r="0.8">
      <stop offset="0%" stop-color="#F97316" stop-opacity="0.45"/>
      <stop offset="100%" stop-color="#F97316" stop-opacity="0"/>
    </radialGradient>

    <radialGradient id="glowB-11" cx="0.92" cy="0.88" r="0.9">
      <stop offset="0%" stop-color="#EF4444" stop-opacity="0.34"/>
      <stop offset="100%" stop-color="#EF4444" stop-opacity="0"/>
    </radialGradient>

    <linearGradient id="accent-11" x1="0" y1="0" x2="1" y2="0">
      <stop offset="0%" stop-color="#F97316" stop-opacity="0"/>
      <stop offset="35%" stop-color="#FDBA74" stop-opacity="0.95"/>
      <stop offset="100%" stop-color="#EF4444" stop-opacity="0"/>
    </linearGradient>

    <filter id="blur-11" x="-30%" y="-30%" width="160%" height="160%">
      <feGaussianBlur stdDeviation="26"/>
    </filter>

    <filter id="inner-11" x="-20%" y="-20%" width="140%" height="140%">
      <feGaussianBlur in="SourceGraphic" stdDeviation="0.6" result="blur"/>
      <feComposite in="SourceGraphic" in2="blur" operator="arithmetic" k2="1" k3="-1"/>
    </filter>

    <pattern id="grid-11" width="32" height="32" patternUnits="userSpaceOnUse">
      <path d="M32 0H0V32" fill="none" stroke="rgba(255,255,255,0.035)" stroke-width="1"/>
    </pattern>

    <clipPath id="mainClip-11">
      <rect x="82" y="96" width="1436" height="708" rx="38"/>
    </clipPath>
  </defs>

  <rect width="1600" height="900" fill="url(#bg-11)"/>
  <rect width="1600" height="900" fill="url(#glowA-11)"/>
  <rect width="1600" height="900" fill="url(#glowB-11)"/>
  <rect width="1600" height="900" fill="url(#grid-11)"/>

  <g transform="rotate(-6,800,450)" opacity="0.14">
    <rect x="-120" y="120" width="1900" height="76" fill="#F97316"/>
    <rect x="-120" y="690" width="1900" height="76" fill="#EF4444"/>
  </g>

  <rect x="82" y="96" width="1436" height="708" rx="38" fill="rgba(8,12,22,0.55)" stroke="rgba(255,255,255,0.14)"/>

  <g clip-path="url(#mainClip-11)">
    <path d="M-40 345 C360 255, 760 441, 1700 317" stroke="url(#accent-11)" stroke-width="2.2" fill="none"/>
    <path d="M-40 595 C420 525, 840 675, 1700 585" stroke="rgba(255,255,255,0.18)" stroke-width="1" fill="none"/>
    <rect x="0" y="552" width="1600" height="220" fill="rgba(255,255,255,0.025)"/>

    <g opacity="0.9">
      <circle cx="1292" cy="492" r="168" fill="none" stroke="rgba(255,255,255,0.3)" stroke-width="1.4"/>
      <circle cx="1292" cy="492" r="126" fill="none" stroke="#FDBA74" stroke-width="2"/>
      <circle cx="1292" cy="492" r="86" fill="none" stroke="#F97316" stroke-width="1.6"/>
      <circle cx="1292" cy="492" r="32" fill="#EF4444" fill-opacity="0.28"/>
      <circle cx="1360" cy="434" r="24" fill="#F97316" fill-opacity="0.5" filter="url(#blur-11)"/>
    </g>
  </g>

  <g>
    <rect x="132" y="146" width="262" height="56" rx="28" fill="rgba(255,255,255,0.02)" stroke="rgba(255,255,255,0.16)"/>
    <rect x="1208" y="146" width="268" height="56" rx="28" fill="rgba(255,255,255,0.02)" stroke="rgba(255,255,255,0.16)"/>
    <text x="168" y="182" font-family="Consolas, monospace" font-size="18" letter-spacing="3" fill="rgba(255,255,255,0.72)">SIGIDINGO BLOG</text>
    <text x="1248" y="182" font-family="Consolas, monospace" font-size="18" letter-spacing="3" fill="#F97316">ARTICLE 11</text>
  </g>

  <g>
    <text x="132" y="410" font-family="Sora, Arial, sans-serif" font-weight="700" font-size="88" letter-spacing="1.1" fill="rgba(255,255,255,0.98)">Dark Patterns</text>
    <text x="134" y="472" font-family="Consolas, monospace" font-size="20" letter-spacing="4" fill="rgba(255,255,255,0.58)">INSIGHTS  •  UX/UI  •  PRODUCT DESIGN</text>

    <rect x="132" y="530" width="480" height="10" rx="5" fill="rgba(255,255,255,0.12)"/>
    <rect x="132" y="530" width="420" height="10" rx="5" fill="#F97316"/>

    <rect x="132" y="562" width="380" height="10" rx="5" fill="rgba(255,255,255,0.12)"/>
    <rect x="132" y="562" width="210" height="10" rx="5" fill="#EF4444"/>
  </g>

  <g transform="translate(1130,610)" filter="url(#inner-11)">
    <rect x="0" y="0" width="330" height="136" rx="20" fill="rgba(7,11,20,0.5)" stroke="rgba(255,255,255,0.16)"/>
    <text x="26" y="42" font-family="Consolas, monospace" font-size="15" letter-spacing="2.5" fill="rgba(255,255,255,0.65)">READ TIME</text>
    <text x="26" y="88" font-family="Sora, Arial, sans-serif" font-weight="600" font-size="34" fill="#FDBA74">9 min</text>
    <line x1="168" y1="26" x2="168" y2="110" stroke="rgba(255,255,255,0.12)"/>
    <text x="190" y="42" font-family="Consolas, monospace" font-size="15" letter-spacing="2.5" fill="rgba(255,255,255,0.65)">TOPIC</text>
    <text x="190" y="88" font-family="Sora, Arial, sans-serif" font-weight="600" font-size="26" fill="rgba(255,255,255,0.94)">Design</text>
  </g>

  <text x="132" y="746" font-family="Consolas, monospace" font-size="17" letter-spacing="3" fill="rgba(255,255,255,0.6)">COVER FORMAT 1600x900</text>
</svg>
