<?xml version="1.0" encoding="UTF-8"?>
<svg xmlns="http://www.w3.org/2000/svg" width="1600" height="900" viewBox="0 0 1600 900">
<title>Design System Scale — cover</title>
<rect width="1600" height="900" fill="#000000"/>
<rect x="293" y="360" width="132" height="11" fill="#e8e8e8" shape-rendering="crispEdges"/>
<rect x="293" y="371" width="11" height="11" fill="#e8e8e8" shape-rendering="crispEdges"/>
<rect x="414" y="371" width="11" height="11" fill="#e8e8e8" shape-rendering="crispEdges"/>
<rect x="271" y="382" width="33" height="11" fill="#e8e8e8" shape-rendering="crispEdges"/>
<rect x="315" y="382" width="88" height="11" fill="#e8e8e8" shape-rendering="crispEdges"/>
<rect x="414" y="382" width="22" height="11" fill="#e8e8e8" shape-rendering="crispEdges"/>
<rect x="271" y="393" width="33" height="11" fill="#e8e8e8" shape-rendering="crispEdges"/>
<rect x="315" y="393" width="88" height="11" fill="#e8e8e8" shape-rendering="crispEdges"/>
<rect x="414" y="393" width="22" height="11" fill="#e8e8e8" shape-rendering="crispEdges"/>
<rect x="271" y="404" width="33" height="11" fill="#e8e8e8" shape-rendering="crispEdges"/>
<rect x="315" y="404" width="22" height="11" fill="#e8e8e8" shape-rendering="crispEdges"/>
<rect x="381" y="404" width="22" height="11" fill="#e8e8e8" shape-rendering="crispEdges"/>
<rect x="414" y="404" width="22" height="11" fill="#e8e8e8" shape-rendering="crispEdges"/>
<rect x="271" y="415" width="33" height="11" fill="#e8e8e8" shape-rendering="crispEdges"/>
<rect x="315" y="415" width="22" height="11" fill="#e8e8e8" shape-rendering="crispEdges"/>
<rect x="381" y="415" width="22" height="11" fill="#e8e8e8" shape-rendering="crispEdges"/>
<rect x="414" y="415" width="22" height="11" fill="#e8e8e8" shape-rendering="crispEdges"/>
<rect x="271" y="426" width="33" height="11" fill="#e8e8e8" shape-rendering="crispEdges"/>
<rect x="315" y="426" width="22" height="11" fill="#e8e8e8" shape-rendering="crispEdges"/>
<rect x="381" y="426" width="22" height="11" fill="#e8e8e8" shape-rendering="crispEdges"/>
<rect x="414" y="426" width="22" height="11" fill="#e8e8e8" shape-rendering="crispEdges"/>
<rect x="271" y="437" width="33" height="11" fill="#e8e8e8" shape-rendering="crispEdges"/>
<rect x="315" y="437" width="22" height="11" fill="#e8e8e8" shape-rendering="crispEdges"/>
<rect x="381" y="437" width="22" height="11" fill="#e8e8e8" shape-rendering="crispEdges"/>
<rect x="414" y="437" width="22" height="11" fill="#e8e8e8" shape-rendering="crispEdges"/>
<rect x="271" y="448" width="33" height="11" fill="#e8e8e8" shape-rendering="crispEdges"/>
<rect x="315" y="448" width="88" height="11" fill="#e8e8e8" shape-rendering="crispEdges"/>
<rect x="414" y="448" width="22" height="11" fill="#e8e8e8" shape-rendering="crispEdges"/>
<rect x="271" y="459" width="33" height="11" fill="#e8e8e8" shape-rendering="crispEdges"/>
<rect x="315" y="459" width="88" height="11" fill="#e8e8e8" shape-rendering="crispEdges"/>
<rect x="414" y="459" width="22" height="11" fill="#e8e8e8" shape-rendering="crispEdges"/>
<rect x="293" y="470" width="11" height="11" fill="#e8e8e8" shape-rendering="crispEdges"/>
<rect x="414" y="470" width="11" height="11" fill="#e8e8e8" shape-rendering="crispEdges"/>
<rect x="293" y="481" width="132" height="11" fill="#e8e8e8" shape-rendering="crispEdges"/>
<rect x="304" y="492" width="22" height="11" fill="#e8e8e8" shape-rendering="crispEdges"/>
<rect x="370" y="492" width="22" height="11" fill="#e8e8e8" shape-rendering="crispEdges"/>
<rect x="304" y="503" width="22" height="11" fill="#e8e8e8" shape-rendering="crispEdges"/>
<rect x="370" y="503" width="22" height="11" fill="#e8e8e8" shape-rendering="crispEdges"/>
<rect x="615" y="371" width="66" height="11" fill="#e8e8e8" shape-rendering="crispEdges"/>
<rect x="604" y="382" width="88" height="11" fill="#e8e8e8" shape-rendering="crispEdges"/>
<rect x="593" y="393" width="110" height="11" fill="#e8e8e8" shape-rendering="crispEdges"/>
<rect x="582" y="404" width="132" height="11" fill="#e8e8e8" shape-rendering="crispEdges"/>
<rect x="571" y="415" width="154" height="11" fill="#e8e8e8" shape-rendering="crispEdges"/>
<rect x="571" y="426" width="154" height="11" fill="#e8e8e8" shape-rendering="crispEdges"/>
<rect x="571" y="437" width="154" height="11" fill="#e8e8e8" shape-rendering="crispEdges"/>
<rect x="571" y="448" width="154" height="11" fill="#e8e8e8" shape-rendering="crispEdges"/>
<rect x="571" y="459" width="154" height="11" fill="#e8e8e8" shape-rendering="crispEdges"/>
<rect x="582" y="470" width="132" height="11" fill="#e8e8e8" shape-rendering="crispEdges"/>
<rect x="593" y="481" width="110" height="11" fill="#e8e8e8" shape-rendering="crispEdges"/>
<rect x="604" y="492" width="88" height="11" fill="#e8e8e8" shape-rendering="crispEdges"/>
<rect x="615" y="503" width="66" height="11" fill="#e8e8e8" shape-rendering="crispEdges"/>
<rect x="926" y="360" width="44" height="11" fill="#e8e8e8" shape-rendering="crispEdges"/>
<rect x="926" y="371" width="44" height="11" fill="#e8e8e8" shape-rendering="crispEdges"/>
<rect x="893" y="382" width="110" height="11" fill="#e8e8e8" shape-rendering="crispEdges"/>
<rect x="871" y="393" width="33" height="11" fill="#e8e8e8" shape-rendering="crispEdges"/>
<rect x="992" y="393" width="33" height="11" fill="#e8e8e8" shape-rendering="crispEdges"/>
<rect x="871" y="404" width="22" height="11" fill="#e8e8e8" shape-rendering="crispEdges"/>
<rect x="915" y="404" width="66" height="11" fill="#e8e8e8" shape-rendering="crispEdges"/>
<rect x="1003" y="404" width="22" height="11" fill="#e8e8e8" shape-rendering="crispEdges"/>
<rect x="871" y="415" width="22" height="11" fill="#e8e8e8" shape-rendering="crispEdges"/>
<rect x="904" y="415" width="88" height="11" fill="#e8e8e8" shape-rendering="crispEdges"/>
<rect x="1003" y="415" width="22" height="11" fill="#e8e8e8" shape-rendering="crispEdges"/>
<rect x="860" y="426" width="44" height="11" fill="#e8e8e8" shape-rendering="crispEdges"/>
<rect x="915" y="426" width="66" height="11" fill="#e8e8e8" shape-rendering="crispEdges"/>
<rect x="992" y="426" width="44" height="11" fill="#e8e8e8" shape-rendering="crispEdges"/>
<rect x="860" y="437" width="44" height="11" fill="#e8e8e8" shape-rendering="crispEdges"/>
<rect x="926" y="437" width="44" height="11" fill="#e8e8e8" shape-rendering="crispEdges"/>
<rect x="992" y="437" width="44" height="11" fill="#e8e8e8" shape-rendering="crispEdges"/>
<rect x="860" y="448" width="44" height="11" fill="#e8e8e8" shape-rendering="crispEdges"/>
<rect x="926" y="448" width="44" height="11" fill="#e8e8e8" shape-rendering="crispEdges"/>
<rect x="992" y="448" width="44" height="11" fill="#e8e8e8" shape-rendering="crispEdges"/>
<rect x="860" y="459" width="44" height="11" fill="#e8e8e8" shape-rendering="crispEdges"/>
<rect x="915" y="459" width="66" height="11" fill="#e8e8e8" shape-rendering="crispEdges"/>
<rect x="992" y="459" width="44" height="11" fill="#e8e8e8" shape-rendering="crispEdges"/>
<rect x="871" y="470" width="22" height="11" fill="#e8e8e8" shape-rendering="crispEdges"/>
<rect x="904" y="470" width="88" height="11" fill="#e8e8e8" shape-rendering="crispEdges"/>
<rect x="1003" y="470" width="22" height="11" fill="#e8e8e8" shape-rendering="crispEdges"/>
<rect x="871" y="481" width="22" height="11" fill="#e8e8e8" shape-rendering="crispEdges"/>
<rect x="915" y="481" width="66" height="11" fill="#e8e8e8" shape-rendering="crispEdges"/>
<rect x="1003" y="481" width="22" height="11" fill="#e8e8e8" shape-rendering="crispEdges"/>
<rect x="871" y="492" width="33" height="11" fill="#e8e8e8" shape-rendering="crispEdges"/>
<rect x="992" y="492" width="33" height="11" fill="#e8e8e8" shape-rendering="crispEdges"/>
<rect x="893" y="503" width="110" height="11" fill="#e8e8e8" shape-rendering="crispEdges"/>
<rect x="926" y="514" width="44" height="11" fill="#e8e8e8" shape-rendering="crispEdges"/>
<rect x="926" y="525" width="44" height="11" fill="#e8e8e8" shape-rendering="crispEdges"/>
<rect x="1182" y="382" width="22" height="11" fill="#e8e8e8" shape-rendering="crispEdges"/>
<rect x="1182" y="393" width="22" height="11" fill="#e8e8e8" shape-rendering="crispEdges"/>
<rect x="1182" y="404" width="22" height="11" fill="#e8e8e8" shape-rendering="crispEdges"/>
<rect x="1259" y="404" width="22" height="11" fill="#e8e8e8" shape-rendering="crispEdges"/>
<rect x="1182" y="415" width="22" height="11" fill="#e8e8e8" shape-rendering="crispEdges"/>
<rect x="1259" y="415" width="22" height="11" fill="#e8e8e8" shape-rendering="crispEdges"/>
<rect x="1182" y="426" width="22" height="11" fill="#e8e8e8" shape-rendering="crispEdges"/>
<rect x="1259" y="426" width="22" height="11" fill="#e8e8e8" shape-rendering="crispEdges"/>
<rect x="1182" y="437" width="22" height="11" fill="#e8e8e8" shape-rendering="crispEdges"/>
<rect x="1215" y="437" width="22" height="11" fill="#e8e8e8" shape-rendering="crispEdges"/>
<rect x="1259" y="437" width="22" height="11" fill="#e8e8e8" shape-rendering="crispEdges"/>
<rect x="1182" y="448" width="22" height="11" fill="#e8e8e8" shape-rendering="crispEdges"/>
<rect x="1215" y="448" width="22" height="11" fill="#e8e8e8" shape-rendering="crispEdges"/>
<rect x="1259" y="448" width="22" height="11" fill="#e8e8e8" shape-rendering="crispEdges"/>
<rect x="1182" y="459" width="22" height="11" fill="#e8e8e8" shape-rendering="crispEdges"/>
<rect x="1215" y="459" width="22" height="11" fill="#e8e8e8" shape-rendering="crispEdges"/>
<rect x="1259" y="459" width="22" height="11" fill="#e8e8e8" shape-rendering="crispEdges"/>
<rect x="1303" y="459" width="22" height="11" fill="#e8e8e8" shape-rendering="crispEdges"/>
<rect x="1182" y="470" width="22" height="11" fill="#e8e8e8" shape-rendering="crispEdges"/>
<rect x="1215" y="470" width="22" height="11" fill="#e8e8e8" shape-rendering="crispEdges"/>
<rect x="1259" y="470" width="22" height="11" fill="#e8e8e8" shape-rendering="crispEdges"/>
<rect x="1303" y="470" width="22" height="11" fill="#e8e8e8" shape-rendering="crispEdges"/>
<rect x="1182" y="481" width="22" height="11" fill="#e8e8e8" shape-rendering="crispEdges"/>
<rect x="1215" y="481" width="22" height="11" fill="#e8e8e8" shape-rendering="crispEdges"/>
<rect x="1259" y="481" width="22" height="11" fill="#e8e8e8" shape-rendering="crispEdges"/>
<rect x="1303" y="481" width="22" height="11" fill="#e8e8e8" shape-rendering="crispEdges"/>
<rect x="1182" y="492" width="22" height="11" fill="#e8e8e8" shape-rendering="crispEdges"/>
<rect x="1215" y="492" width="22" height="11" fill="#e8e8e8" shape-rendering="crispEdges"/>
<rect x="1259" y="492" width="22" height="11" fill="#e8e8e8" shape-rendering="crispEdges"/>
<rect x="1303" y="492" width="22" height="11" fill="#e8e8e8" shape-rendering="crispEdges"/>
<rect x="1160" y="503" width="154" height="11" fill="#e8e8e8" shape-rendering="crispEdges"/>
<rect x="1160" y="514" width="154" height="11" fill="#e8e8e8" shape-rendering="crispEdges"/>
</svg>
