<?xml version="1.0" encoding="UTF-8"?>
<svg xmlns="http://www.w3.org/2000/svg" width="1600" height="900" viewBox="0 0 1600 900">
  <defs>
    <linearGradient id="bg-design-critique" x1="0" y1="0" x2="1" y2="1">
      <stop offset="0%" stop-color="#0b0f1a"/>
      <stop offset="60%" stop-color="#111827"/>
      <stop offset="100%" stop-color="#0f172a"/>
    </linearGradient>
    <radialGradient id="glow-design-critique" cx="0.75" cy="0.2" r="0.9">
      <stop offset="0%" stop-color="#22d3ee" stop-opacity="0.45"/>
      <stop offset="100%" stop-color="#22d3ee" stop-opacity="0"/>
    </radialGradient>
  </defs>
  <rect width="1600" height="900" fill="url(#bg-design-critique)"/>
  <rect width="1600" height="900" fill="url(#glow-design-critique)"/>
  <g stroke="rgba(255,255,255,0.05)" stroke-width="1">
    <line x1="0" y1="0" x2="0" y2="900"/>
    <line x1="160" y1="0" x2="160" y2="900"/>
    <line x1="320" y1="0" x2="320" y2="900"/>
    <line x1="480" y1="0" x2="480" y2="900"/>
    <line x1="640" y1="0" x2="640" y2="900"/>
    <line x1="800" y1="0" x2="800" y2="900"/>
    <line x1="960" y1="0" x2="960" y2="900"/>
    <line x1="1120" y1="0" x2="1120" y2="900"/>
    <line x1="1280" y1="0" x2="1280" y2="900"/>
    <line x1="1440" y1="0" x2="1440" y2="900"/>
    <line x1="1600" y1="0" x2="1600" y2="900"/>
    <line x1="0" y1="0" x2="1600" y2="0"/>
    <line x1="0" y1="120" x2="1600" y2="120"/>
    <line x1="0" y1="240" x2="1600" y2="240"/>
    <line x1="0" y1="360" x2="1600" y2="360"/>
    <line x1="0" y1="480" x2="1600" y2="480"/>
    <line x1="0" y1="600" x2="1600" y2="600"/>
    <line x1="0" y1="720" x2="1600" y2="720"/>
    <line x1="0" y1="840" x2="1600" y2="840"/>
  </g>
  <g fill="none" stroke="#22d3ee" stroke-width="2" opacity="0.55">
    <path d="M 1298.2 319.6 A 222.7 222.7 0 0 1 1162.3 456.4"/>
    <path d="M 795.5 537.1 A 231.0 231.0 0 0 1 562.0 634.0"/>
    <path d="M 495.2 312.1 A 273.7 273.7 0 0 1 153.7 539.2"/>
  </g>
  <g stroke="rgba(255,255,255,0.12)" stroke-width="2">
    <line x1="324.0" y1="426.3" x2="1501.8" y2="-47.4"/>
    <line x1="3.0" y1="421.5" x2="1472.8" y2="-227.7"/>
    <line x1="20.2" y1="543.8" x2="1392.5" y2="-38.7"/>
    <line x1="229.5" y1="202.2" x2="1273.5" y2="0.6"/>
    <line x1="368.9" y1="453.6" x2="1303.3" y2="-132.2"/>
  </g>
  <g fill="none" stroke="rgba(255,255,255,0.18)" stroke-width="2">
    <rect x="262.9" y="586.8" width="200.2" height="253.3" rx="18"/>
    <rect x="1201.5" y="110.7" width="206.1" height="177.6" rx="18"/>
    <rect x="763.6" y="396.2" width="282.2" height="88.5" rx="18"/>
    <rect x="556.9" y="83.1" width="288.7" height="171.8" rx="18"/>
  </g>
  <g fill="#22d3ee" opacity="0.22">
    <rect x="1117.7" y="544.1" width="124.6" height="48.0" rx="24.0"/>
    <rect x="1270.2" y="265.1" width="175.4" height="55.1" rx="27.6"/>
    <rect x="1248.0" y="718.3" width="232.5" height="26.5" rx="13.2"/>
    <rect x="298.5" y="628.0" width="161.6" height="28.0" rx="14.0"/>
  </g>
  <text x="100" y="140" font-family="Sora, sans-serif" font-size="44" fill="rgba(255,255,255,0.9)" letter-spacing="2">Дизайн‑критика</text>
  <text x="100" y="190" font-family="IBM Plex Mono, monospace" font-size="14" fill="rgba(255,255,255,0.6)" letter-spacing="4">SIGIDINGO / BLOG</text>
</svg>