<?xml version="1.0" encoding="UTF-8"?>
<svg xmlns="http://www.w3.org/2000/svg" width="1600" height="900" viewBox="0 0 1600 900">
  <defs>
    <linearGradient id="bg-ds-scale" x1="0" y1="0" x2="1" y2="1">
      <stop offset="0%" stop-color="#0b0b0f"/>
      <stop offset="50%" stop-color="#15131e"/>
      <stop offset="100%" stop-color="#111827"/>
    </linearGradient>
    <radialGradient id="glow-ds-scale" cx="0.8" cy="0.2" r="0.9">
      <stop offset="0%" stop-color="#f59e0b" stop-opacity="0.45"/>
      <stop offset="100%" stop-color="#f59e0b" stop-opacity="0"/>
    </radialGradient>
  </defs>
  <rect width="1600" height="900" fill="url(#bg-ds-scale)"/>
  <rect width="1600" height="900" fill="url(#glow-ds-scale)"/>
  <g stroke="rgba(255,255,255,0.05)" stroke-width="1">
    <line x1="0" y1="0" x2="0" y2="900"/>
    <line x1="200" y1="0" x2="200" y2="900"/>
    <line x1="400" y1="0" x2="400" y2="900"/>
    <line x1="600" y1="0" x2="600" y2="900"/>
    <line x1="800" y1="0" x2="800" y2="900"/>
    <line x1="1000" y1="0" x2="1000" y2="900"/>
    <line x1="1200" y1="0" x2="1200" y2="900"/>
    <line x1="1400" y1="0" x2="1400" y2="900"/>
    <line x1="1600" y1="0" x2="1600" y2="900"/>
    <line x1="0" y1="0" x2="1600" y2="0"/>
    <line x1="0" y1="180" x2="1600" y2="180"/>
    <line x1="0" y1="360" x2="1600" y2="360"/>
    <line x1="0" y1="540" x2="1600" y2="540"/>
    <line x1="0" y1="720" x2="1600" y2="720"/>
    <line x1="0" y1="900" x2="1600" y2="900"/>
  </g>
  <g fill="none" stroke="rgba(255,255,255,0.22)" stroke-width="2">
    <rect x="140" y="140" width="280" height="180" rx="22"/>
    <rect x="220" y="220" width="360" height="210" rx="26"/>
    <rect x="520" y="160" width="320" height="200" rx="22"/>
    <rect x="880" y="200" width="420" height="260" rx="28"/>
    <rect x="1040" y="520" width="380" height="220" rx="24"/>
  </g>
  <g stroke="#f59e0b" stroke-width="2" opacity="0.7" fill="none">
    <path d="M 220 600 L 560 520 L 760 600 L 980 520"/>
    <path d="M 320 660 L 620 590 L 920 660 L 1180 590"/>
    <path d="M 980 300 L 1220 260 L 1420 300"/>
  </g>
  <g fill="#f59e0b" opacity="0.2">
    <rect x="220" y="470" width="300" height="28" rx="14"/>
    <rect x="820" y="140" width="240" height="28" rx="14"/>
    <rect x="1080" y="430" width="280" height="36" rx="18"/>
    <circle cx="480" cy="300" r="46"/>
    <circle cx="1220" cy="600" r="54"/>
  </g>
  <g stroke="rgba(255,255,255,0.14)" stroke-width="2">
    <line x1="100" y1="500" x2="1500" y2="420"/>
    <line x1="160" y1="260" x2="1120" y2="120"/>
  </g>
  <text x="100" y="130" font-family="Sora, sans-serif" font-size="42" fill="rgba(255,255,255,0.9)" letter-spacing="2">Design System Scale</text>
  <text x="100" y="180" font-family="IBM Plex Mono, monospace" font-size="14" fill="rgba(255,255,255,0.6)" letter-spacing="4">SIGIDINGO / BLOG</text>
</svg>
