<?xml version="1.0" encoding="UTF-8"?>
<svg xmlns="http://www.w3.org/2000/svg" width="1600" height="900" viewBox="0 0 1600 900">
<title>Future of UX — cover</title>
<rect width="1600" height="900" fill="#000000"/>
<rect x="337" y="360" width="22" height="11" fill="#e8e8e8" shape-rendering="crispEdges"/>
<rect x="326" y="371" width="44" height="11" fill="#e8e8e8" shape-rendering="crispEdges"/>
<rect x="315" y="382" width="66" height="11" fill="#e8e8e8" shape-rendering="crispEdges"/>
<rect x="304" y="393" width="88" height="11" fill="#e8e8e8" shape-rendering="crispEdges"/>
<rect x="304" y="404" width="88" height="11" fill="#e8e8e8" shape-rendering="crispEdges"/>
<rect x="304" y="415" width="22" height="11" fill="#e8e8e8" shape-rendering="crispEdges"/>
<rect x="337" y="415" width="22" height="11" fill="#e8e8e8" shape-rendering="crispEdges"/>
<rect x="370" y="415" width="22" height="11" fill="#e8e8e8" shape-rendering="crispEdges"/>
<rect x="293" y="426" width="110" height="11" fill="#e8e8e8" shape-rendering="crispEdges"/>
<rect x="293" y="437" width="110" height="11" fill="#e8e8e8" shape-rendering="crispEdges"/>
<rect x="304" y="448" width="88" height="11" fill="#e8e8e8" shape-rendering="crispEdges"/>
<rect x="304" y="459" width="22" height="11" fill="#e8e8e8" shape-rendering="crispEdges"/>
<rect x="370" y="459" width="22" height="11" fill="#e8e8e8" shape-rendering="crispEdges"/>
<rect x="293" y="470" width="22" height="11" fill="#e8e8e8" shape-rendering="crispEdges"/>
<rect x="381" y="470" width="22" height="11" fill="#e8e8e8" shape-rendering="crispEdges"/>
<rect x="282" y="481" width="22" height="11" fill="#e8e8e8" shape-rendering="crispEdges"/>
<rect x="392" y="481" width="22" height="11" fill="#e8e8e8" shape-rendering="crispEdges"/>
<rect x="271" y="492" width="22" height="11" fill="#e8e8e8" shape-rendering="crispEdges"/>
<rect x="403" y="492" width="22" height="11" fill="#e8e8e8" shape-rendering="crispEdges"/>
<rect x="271" y="503" width="11" height="11" fill="#e8e8e8" shape-rendering="crispEdges"/>
<rect x="414" y="503" width="11" height="11" fill="#e8e8e8" shape-rendering="crispEdges"/>
<rect x="626" y="360" width="66" height="11" fill="#e8e8e8" shape-rendering="crispEdges"/>
<rect x="615" y="371" width="88" height="11" fill="#e8e8e8" shape-rendering="crispEdges"/>
<rect x="604" y="382" width="110" height="11" fill="#e8e8e8" shape-rendering="crispEdges"/>
<rect x="604" y="393" width="110" height="11" fill="#e8e8e8" shape-rendering="crispEdges"/>
<rect x="604" y="404" width="110" height="11" fill="#e8e8e8" shape-rendering="crispEdges"/>
<rect x="604" y="415" width="110" height="11" fill="#e8e8e8" shape-rendering="crispEdges"/>
<rect x="604" y="426" width="110" height="11" fill="#e8e8e8" shape-rendering="crispEdges"/>
<rect x="615" y="437" width="88" height="11" fill="#e8e8e8" shape-rendering="crispEdges"/>
<rect x="615" y="448" width="88" height="11" fill="#e8e8e8" shape-rendering="crispEdges"/>
<rect x="626" y="459" width="66" height="11" fill="#e8e8e8" shape-rendering="crispEdges"/>
<rect x="626" y="470" width="66" height="11" fill="#e8e8e8" shape-rendering="crispEdges"/>
<rect x="626" y="481" width="66" height="11" fill="#e8e8e8" shape-rendering="crispEdges"/>
<rect x="626" y="492" width="66" height="11" fill="#e8e8e8" shape-rendering="crispEdges"/>
<rect x="637" y="503" width="44" height="11" fill="#e8e8e8" shape-rendering="crispEdges"/>
<rect x="637" y="514" width="44" height="11" fill="#e8e8e8" shape-rendering="crispEdges"/>
<rect x="648" y="525" width="22" height="11" fill="#e8e8e8" shape-rendering="crispEdges"/>
<rect x="860" y="360" width="11" height="11" fill="#e8e8e8" shape-rendering="crispEdges"/>
<rect x="860" y="371" width="22" height="11" fill="#e8e8e8" shape-rendering="crispEdges"/>
<rect x="860" y="382" width="33" height="11" fill="#e8e8e8" shape-rendering="crispEdges"/>
<rect x="860" y="393" width="44" height="11" fill="#e8e8e8" shape-rendering="crispEdges"/>
<rect x="860" y="404" width="55" height="11" fill="#e8e8e8" shape-rendering="crispEdges"/>
<rect x="860" y="415" width="66" height="11" fill="#e8e8e8" shape-rendering="crispEdges"/>
<rect x="860" y="426" width="77" height="11" fill="#e8e8e8" shape-rendering="crispEdges"/>
<rect x="860" y="437" width="88" height="11" fill="#e8e8e8" shape-rendering="crispEdges"/>
<rect x="860" y="448" width="99" height="11" fill="#e8e8e8" shape-rendering="crispEdges"/>
<rect x="860" y="459" width="110" height="11" fill="#e8e8e8" shape-rendering="crispEdges"/>
<rect x="860" y="470" width="55" height="11" fill="#e8e8e8" shape-rendering="crispEdges"/>
<rect x="926" y="470" width="22" height="11" fill="#e8e8e8" shape-rendering="crispEdges"/>
<rect x="860" y="481" width="55" height="11" fill="#e8e8e8" shape-rendering="crispEdges"/>
<rect x="937" y="481" width="22" height="11" fill="#e8e8e8" shape-rendering="crispEdges"/>
<rect x="860" y="492" width="55" height="11" fill="#e8e8e8" shape-rendering="crispEdges"/>
<rect x="1248" y="360" width="11" height="11" fill="#e8e8e8" shape-rendering="crispEdges"/>
<rect x="1237" y="371" width="33" height="11" fill="#e8e8e8" shape-rendering="crispEdges"/>
<rect x="1237" y="382" width="33" height="11" fill="#e8e8e8" shape-rendering="crispEdges"/>
<rect x="1226" y="393" width="55" height="11" fill="#e8e8e8" shape-rendering="crispEdges"/>
<rect x="1226" y="404" width="55" height="11" fill="#e8e8e8" shape-rendering="crispEdges"/>
<rect x="1215" y="415" width="77" height="11" fill="#e8e8e8" shape-rendering="crispEdges"/>
<rect x="1204" y="426" width="99" height="11" fill="#e8e8e8" shape-rendering="crispEdges"/>
<rect x="1171" y="437" width="132" height="11" fill="#e8e8e8" shape-rendering="crispEdges"/>
<rect x="1171" y="448" width="132" height="11" fill="#e8e8e8" shape-rendering="crispEdges"/>
<rect x="1204" y="459" width="77" height="11" fill="#e8e8e8" shape-rendering="crispEdges"/>
<rect x="1193" y="470" width="99" height="11" fill="#e8e8e8" shape-rendering="crispEdges"/>
<rect x="1193" y="481" width="33" height="11" fill="#e8e8e8" shape-rendering="crispEdges"/>
<rect x="1259" y="481" width="33" height="11" fill="#e8e8e8" shape-rendering="crispEdges"/>
<rect x="1182" y="492" width="33" height="11" fill="#e8e8e8" shape-rendering="crispEdges"/>
<rect x="1270" y="492" width="33" height="11" fill="#e8e8e8" shape-rendering="crispEdges"/>
<rect x="1171" y="503" width="33" height="11" fill="#e8e8e8" shape-rendering="crispEdges"/>
<rect x="1281" y="503" width="33" height="11" fill="#e8e8e8" shape-rendering="crispEdges"/>
</svg>
