<?xml version="1.0" encoding="UTF-8"?>
<svg xmlns="http://www.w3.org/2000/svg" width="1600" height="900" viewBox="0 0 1600 900">
  <defs>
    <linearGradient id="bg-mobile-first" x1="0" y1="0" x2="1" y2="1">
      <stop offset="0%" stop-color="#0b1116"/>
      <stop offset="60%" stop-color="#0f172a"/>
      <stop offset="100%" stop-color="#1f2937"/>
    </linearGradient>
    <radialGradient id="glow-mobile-first" cx="0.75" cy="0.2" r="0.9">
      <stop offset="0%" stop-color="#34d399" stop-opacity="0.45"/>
      <stop offset="100%" stop-color="#34d399" stop-opacity="0"/>
    </radialGradient>
  </defs>
  <rect width="1600" height="900" fill="url(#bg-mobile-first)"/>
  <rect width="1600" height="900" fill="url(#glow-mobile-first)"/>
  <g stroke="rgba(255,255,255,0.05)" stroke-width="1">
    <line x1="0" y1="0" x2="0" y2="900"/>
    <line x1="160" y1="0" x2="160" y2="900"/>
    <line x1="320" y1="0" x2="320" y2="900"/>
    <line x1="480" y1="0" x2="480" y2="900"/>
    <line x1="640" y1="0" x2="640" y2="900"/>
    <line x1="800" y1="0" x2="800" y2="900"/>
    <line x1="960" y1="0" x2="960" y2="900"/>
    <line x1="1120" y1="0" x2="1120" y2="900"/>
    <line x1="1280" y1="0" x2="1280" y2="900"/>
    <line x1="1440" y1="0" x2="1440" y2="900"/>
    <line x1="1600" y1="0" x2="1600" y2="900"/>
    <line x1="0" y1="0" x2="1600" y2="0"/>
    <line x1="0" y1="120" x2="1600" y2="120"/>
    <line x1="0" y1="240" x2="1600" y2="240"/>
    <line x1="0" y1="360" x2="1600" y2="360"/>
    <line x1="0" y1="480" x2="1600" y2="480"/>
    <line x1="0" y1="600" x2="1600" y2="600"/>
    <line x1="0" y1="720" x2="1600" y2="720"/>
    <line x1="0" y1="840" x2="1600" y2="840"/>
  </g>
  <g fill="none" stroke="#34d399" stroke-width="2" opacity="0.5">
    <path d="M 532.7 350.1 A 227.4 227.4 0 0 1 615.7 127.6"/>
    <path d="M 912.8 806.6 A 181.8 181.8 0 0 1 795.5 641.8"/>
    <path d="M 905.3 784.3 A 207.7 207.7 0 0 1 751.4 851.3"/>
  </g>
  <g stroke="rgba(255,255,255,0.12)" stroke-width="2">
    <line x1="-35.4" y1="62.2" x2="906.8" y2="-424.7"/>
    <line x1="86.8" y1="870.9" x2="1231.6" y2="203.3"/>
    <line x1="232.1" y1="654.0" x2="1169.2" y2="-4.2"/>
    <line x1="56.0" y1="544.6" x2="1332.5" y2="244.1"/>
    <line x1="123.0" y1="654.5" x2="1227.3" y2="-30.3"/>
  </g>
  <g fill="none" stroke="rgba(255,255,255,0.18)" stroke-width="2">
    <rect x="1006.7" y="416.5" width="213.7" height="234.7" rx="18"/>
    <rect x="599.9" y="241.5" width="334.2" height="143.7" rx="18"/>
    <rect x="377.4" y="541.6" width="232.0" height="239.0" rx="18"/>
    <rect x="985.5" y="398.0" width="389.9" height="209.8" rx="18"/>
  </g>
  <g fill="#34d399" opacity="0.22">
    <rect x="1171.2" y="513.7" width="153.7" height="31.6" rx="15.8"/>
    <rect x="1230.0" y="229.5" width="208.0" height="49.0" rx="24.5"/>
    <rect x="1154.8" y="323.4" width="126.2" height="48.3" rx="24.1"/>
    <rect x="849.0" y="155.6" width="300.0" height="40.3" rx="20.1"/>
  </g>
  <text x="100" y="140" font-family="Sora, sans-serif" font-size="44" fill="rgba(255,255,255,0.9)" letter-spacing="2">Mobile-first</text>
  <text x="100" y="190" font-family="IBM Plex Mono, monospace" font-size="14" fill="rgba(255,255,255,0.6)" letter-spacing="4">SIGIDINGO / BLOG</text>
</svg>