<?xml version="1.0" encoding="UTF-8"?>
<svg xmlns="http://www.w3.org/2000/svg" width="1600" height="900" viewBox="0 0 1600 900">
<title>Mobile First — cover</title>
<rect width="1600" height="900" fill="#000000"/>
<rect x="421" y="382" width="154" height="11" fill="#e8e8e8" shape-rendering="crispEdges"/>
<rect x="421" y="393" width="11" height="11" fill="#e8e8e8" shape-rendering="crispEdges"/>
<rect x="564" y="393" width="11" height="11" fill="#e8e8e8" shape-rendering="crispEdges"/>
<rect x="421" y="404" width="11" height="11" fill="#e8e8e8" shape-rendering="crispEdges"/>
<rect x="443" y="404" width="110" height="11" fill="#e8e8e8" shape-rendering="crispEdges"/>
<rect x="564" y="404" width="11" height="11" fill="#e8e8e8" shape-rendering="crispEdges"/>
<rect x="421" y="415" width="11" height="11" fill="#e8e8e8" shape-rendering="crispEdges"/>
<rect x="443" y="415" width="11" height="11" fill="#e8e8e8" shape-rendering="crispEdges"/>
<rect x="542" y="415" width="11" height="11" fill="#e8e8e8" shape-rendering="crispEdges"/>
<rect x="564" y="415" width="11" height="11" fill="#e8e8e8" shape-rendering="crispEdges"/>
<rect x="421" y="426" width="11" height="11" fill="#e8e8e8" shape-rendering="crispEdges"/>
<rect x="443" y="426" width="11" height="11" fill="#e8e8e8" shape-rendering="crispEdges"/>
<rect x="542" y="426" width="11" height="11" fill="#e8e8e8" shape-rendering="crispEdges"/>
<rect x="564" y="426" width="11" height="11" fill="#e8e8e8" shape-rendering="crispEdges"/>
<rect x="421" y="437" width="11" height="11" fill="#e8e8e8" shape-rendering="crispEdges"/>
<rect x="443" y="437" width="11" height="11" fill="#e8e8e8" shape-rendering="crispEdges"/>
<rect x="542" y="437" width="11" height="11" fill="#e8e8e8" shape-rendering="crispEdges"/>
<rect x="564" y="437" width="11" height="11" fill="#e8e8e8" shape-rendering="crispEdges"/>
<rect x="421" y="448" width="11" height="11" fill="#e8e8e8" shape-rendering="crispEdges"/>
<rect x="443" y="448" width="11" height="11" fill="#e8e8e8" shape-rendering="crispEdges"/>
<rect x="542" y="448" width="11" height="11" fill="#e8e8e8" shape-rendering="crispEdges"/>
<rect x="564" y="448" width="11" height="11" fill="#e8e8e8" shape-rendering="crispEdges"/>
<rect x="421" y="459" width="11" height="11" fill="#e8e8e8" shape-rendering="crispEdges"/>
<rect x="443" y="459" width="11" height="11" fill="#e8e8e8" shape-rendering="crispEdges"/>
<rect x="542" y="459" width="11" height="11" fill="#e8e8e8" shape-rendering="crispEdges"/>
<rect x="564" y="459" width="11" height="11" fill="#e8e8e8" shape-rendering="crispEdges"/>
<rect x="421" y="470" width="11" height="11" fill="#e8e8e8" shape-rendering="crispEdges"/>
<rect x="443" y="470" width="110" height="11" fill="#e8e8e8" shape-rendering="crispEdges"/>
<rect x="564" y="470" width="11" height="11" fill="#e8e8e8" shape-rendering="crispEdges"/>
<rect x="421" y="481" width="11" height="11" fill="#e8e8e8" shape-rendering="crispEdges"/>
<rect x="564" y="481" width="11" height="11" fill="#e8e8e8" shape-rendering="crispEdges"/>
<rect x="421" y="492" width="154" height="11" fill="#e8e8e8" shape-rendering="crispEdges"/>
<rect x="465" y="503" width="66" height="11" fill="#e8e8e8" shape-rendering="crispEdges"/>
<rect x="443" y="514" width="110" height="11" fill="#e8e8e8" shape-rendering="crispEdges"/>
<rect x="710" y="360" width="11" height="11" fill="#e8e8e8" shape-rendering="crispEdges"/>
<rect x="710" y="371" width="22" height="11" fill="#e8e8e8" shape-rendering="crispEdges"/>
<rect x="710" y="382" width="33" height="11" fill="#e8e8e8" shape-rendering="crispEdges"/>
<rect x="710" y="393" width="44" height="11" fill="#e8e8e8" shape-rendering="crispEdges"/>
<rect x="710" y="404" width="55" height="11" fill="#e8e8e8" shape-rendering="crispEdges"/>
<rect x="710" y="415" width="66" height="11" fill="#e8e8e8" shape-rendering="crispEdges"/>
<rect x="710" y="426" width="77" height="11" fill="#e8e8e8" shape-rendering="crispEdges"/>
<rect x="710" y="437" width="88" height="11" fill="#e8e8e8" shape-rendering="crispEdges"/>
<rect x="710" y="448" width="99" height="11" fill="#e8e8e8" shape-rendering="crispEdges"/>
<rect x="710" y="459" width="110" height="11" fill="#e8e8e8" shape-rendering="crispEdges"/>
<rect x="710" y="470" width="55" height="11" fill="#e8e8e8" shape-rendering="crispEdges"/>
<rect x="776" y="470" width="22" height="11" fill="#e8e8e8" shape-rendering="crispEdges"/>
<rect x="710" y="481" width="55" height="11" fill="#e8e8e8" shape-rendering="crispEdges"/>
<rect x="787" y="481" width="22" height="11" fill="#e8e8e8" shape-rendering="crispEdges"/>
<rect x="710" y="492" width="55" height="11" fill="#e8e8e8" shape-rendering="crispEdges"/>
<rect x="1175" y="382" width="11" height="11" fill="#e8e8e8" shape-rendering="crispEdges"/>
<rect x="1164" y="393" width="22" height="11" fill="#e8e8e8" shape-rendering="crispEdges"/>
<rect x="1153" y="404" width="22" height="11" fill="#e8e8e8" shape-rendering="crispEdges"/>
<rect x="1142" y="415" width="22" height="11" fill="#e8e8e8" shape-rendering="crispEdges"/>
<rect x="1131" y="426" width="22" height="11" fill="#e8e8e8" shape-rendering="crispEdges"/>
<rect x="1021" y="437" width="11" height="11" fill="#e8e8e8" shape-rendering="crispEdges"/>
<rect x="1120" y="437" width="22" height="11" fill="#e8e8e8" shape-rendering="crispEdges"/>
<rect x="1021" y="448" width="22" height="11" fill="#e8e8e8" shape-rendering="crispEdges"/>
<rect x="1109" y="448" width="22" height="11" fill="#e8e8e8" shape-rendering="crispEdges"/>
<rect x="1021" y="459" width="33" height="11" fill="#e8e8e8" shape-rendering="crispEdges"/>
<rect x="1098" y="459" width="22" height="11" fill="#e8e8e8" shape-rendering="crispEdges"/>
<rect x="1032" y="470" width="33" height="11" fill="#e8e8e8" shape-rendering="crispEdges"/>
<rect x="1087" y="470" width="22" height="11" fill="#e8e8e8" shape-rendering="crispEdges"/>
<rect x="1043" y="481" width="44" height="11" fill="#e8e8e8" shape-rendering="crispEdges"/>
<rect x="1054" y="492" width="33" height="11" fill="#e8e8e8" shape-rendering="crispEdges"/>
<rect x="1065" y="503" width="11" height="11" fill="#e8e8e8" shape-rendering="crispEdges"/>
</svg>
