<?xml version="1.0" encoding="UTF-8"?>
<svg xmlns="http://www.w3.org/2000/svg" width="1600" height="900" viewBox="0 0 1600 900">
  <defs>
    <linearGradient id="bg-3" x1="0" y1="0" x2="1" y2="1">
      <stop offset="0%" stop-color="#070A12"/>
      <stop offset="52%" stop-color="#0B1120"/>
      <stop offset="100%" stop-color="#05070D"/>
    </linearGradient>
    <radialGradient id="haloA-3" cx="0.04" cy="0.06" r="0.9">
      <stop offset="0%" stop-color="#6EE7B7" stop-opacity="0.44"/>
      <stop offset="100%" stop-color="#6EE7B7" stop-opacity="0"/>
    </radialGradient>
    <radialGradient id="haloB-3" cx="0.95" cy="0.95" r="0.95">
      <stop offset="0%" stop-color="#60A5FA" stop-opacity="0.34"/>
      <stop offset="100%" stop-color="#60A5FA" stop-opacity="0"/>
    </radialGradient>
    <linearGradient id="beam-3" x1="0" y1="0" x2="1" y2="0">
      <stop offset="0%" stop-color="#DAFEF0" stop-opacity="0"/>
      <stop offset="40%" stop-color="#DAFEF0" stop-opacity="0.95"/>
      <stop offset="100%" stop-color="#DAFEF0" stop-opacity="0"/>
    </linearGradient>
    <filter id="soft-3" x="-20%" y="-20%" width="140%" height="140%">
      <feGaussianBlur stdDeviation="24"/>
    </filter>
  </defs>

  <rect width="1600" height="900" fill="url(#bg-3)"/>
  <rect width="1600" height="900" fill="url(#haloA-3)"/>
  <rect width="1600" height="900" fill="url(#haloB-3)"/>

  <g stroke="rgba(255,255,255,0.05)" stroke-width="1">
    <line x1="0" y1="90" x2="1600" y2="90"/>
    <line x1="0" y1="810" x2="1600" y2="810"/>
    <line x1="120" y1="0" x2="120" y2="900"/>
    <line x1="1480" y1="0" x2="1480" y2="900"/>
  </g>

  <g opacity="0.8">
    <path d="M0 168 L1600 673 L1600 900 L0 900 Z" fill="rgba(255,255,255,0.03)"/>
    <path d="M0 306 C320 188, 760 424, 1600 296" stroke="url(#beam-3)" stroke-width="2" fill="none"/>
    <path d="M0 596 C360 566, 840 646, 1600 606" stroke="rgba(255,255,255,0.17)" stroke-width="1" fill="none"/>
  </g>

  <rect x="90" y="110" width="1420" height="680" rx="36" fill="rgba(7,10,18,0.58)" stroke="rgba(255,255,255,0.14)"/>
  <path d="M130 212 H1470" stroke="url(#beam-3)" stroke-width="2"/>
  <path d="M130 690 H1470" stroke="url(#beam-3)" stroke-width="2"/>

  <g fill="none" stroke="rgba(255,255,255,0.16)">
    <rect x="140" y="160" width="230" height="54" rx="27"/>
    <rect x="1210" y="160" width="250" height="54" rx="27"/>
  </g>

  <text x="178" y="194" font-family="Consolas, monospace" font-size="18" letter-spacing="3" fill="rgba(255,255,255,0.68)">SIGIDINGO BLOG</text>
  <text x="1252" y="194" font-family="Consolas, monospace" font-size="18" letter-spacing="3" fill="#6EE7B7">ARTICLE 03</text>

  <text x="140" y="420" font-family="Sora, Arial, sans-serif" font-weight="700" font-size="92" letter-spacing="1.2" fill="rgba(255,255,255,0.98)">Mobile First</text>
  <text x="142" y="482" font-family="Consolas, monospace" font-size="22" letter-spacing="4" fill="rgba(255,255,255,0.58)">UX/UI  •  PRODUCT  •  PRACTICE</text>

  <g>
    <rect x="140" y="540" width="460" height="9" rx="4.5" fill="rgba(255,255,255,0.12)"/>
    <rect x="140" y="540" width="338" height="9" rx="4.5" fill="#60A5FA"/>
    <rect x="140" y="570" width="350" height="9" rx="4.5" fill="rgba(255,255,255,0.12)"/>
    <rect x="140" y="570" width="244" height="9" rx="4.5" fill="#6EE7B7"/>
  </g>

  <g opacity="0.9">
    <circle cx="1270" cy="470" r="140" fill="none" stroke="#DAFEF0" stroke-width="2"/>
    <circle cx="1270" cy="470" r="102" fill="none" stroke="rgba(255,255,255,0.24)" stroke-width="2"/>
    <circle cx="1270" cy="470" r="64" fill="none" stroke="#6EE7B7" stroke-width="2"/>
    <circle cx="1270" cy="470" r="24" fill="#6EE7B7" fill-opacity="0.28"/>
    <circle cx="1326" cy="412" r="18" fill="#60A5FA" fill-opacity="0.45" filter="url(#soft-3)"/>
  </g>

  <text x="140" y="735" font-family="Consolas, monospace" font-size="18" letter-spacing="3" fill="rgba(255,255,255,0.62)">BLOG COVER 1600x900</text>
</svg>
