<?xml version="1.0" encoding="UTF-8"?>
<svg xmlns="http://www.w3.org/2000/svg" width="1600" height="900" viewBox="0 0 1600 900">
  <defs>
    <linearGradient id="bg-9" x1="0" y1="0" x2="1" y2="1">
      <stop offset="0%" stop-color="#03050B"/>
      <stop offset="48%" stop-color="#0A1120"/>
      <stop offset="100%" stop-color="#02040A"/>
    </linearGradient>

    <radialGradient id="glowA-9" cx="0.08" cy="0.1" r="0.8">
      <stop offset="0%" stop-color="#38BDF8" stop-opacity="0.45"/>
      <stop offset="100%" stop-color="#38BDF8" stop-opacity="0"/>
    </radialGradient>

    <radialGradient id="glowB-9" cx="0.92" cy="0.88" r="0.9">
      <stop offset="0%" stop-color="#A78BFA" stop-opacity="0.34"/>
      <stop offset="100%" stop-color="#A78BFA" stop-opacity="0"/>
    </radialGradient>

    <linearGradient id="accent-9" x1="0" y1="0" x2="1" y2="0">
      <stop offset="0%" stop-color="#38BDF8" stop-opacity="0"/>
      <stop offset="35%" stop-color="#F0ABFC" stop-opacity="0.95"/>
      <stop offset="100%" stop-color="#A78BFA" stop-opacity="0"/>
    </linearGradient>

    <filter id="blur-9" x="-30%" y="-30%" width="160%" height="160%">
      <feGaussianBlur stdDeviation="26"/>
    </filter>

    <filter id="inner-9" x="-20%" y="-20%" width="140%" height="140%">
      <feGaussianBlur in="SourceGraphic" stdDeviation="0.6" result="blur"/>
      <feComposite in="SourceGraphic" in2="blur" operator="arithmetic" k2="1" k3="-1"/>
    </filter>

    <pattern id="grid-9" width="32" height="32" patternUnits="userSpaceOnUse">
      <path d="M32 0H0V32" fill="none" stroke="rgba(255,255,255,0.035)" stroke-width="1"/>
    </pattern>

    <clipPath id="mainClip-9">
      <rect x="82" y="96" width="1436" height="708" rx="38"/>
    </clipPath>
  </defs>

  <rect width="1600" height="900" fill="url(#bg-9)"/>
  <rect width="1600" height="900" fill="url(#glowA-9)"/>
  <rect width="1600" height="900" fill="url(#glowB-9)"/>
  <rect width="1600" height="900" fill="url(#grid-9)"/>

  <g transform="rotate(6,800,450)" opacity="0.14">
    <rect x="-120" y="120" width="1900" height="76" fill="#38BDF8"/>
    <rect x="-120" y="690" width="1900" height="76" fill="#A78BFA"/>
  </g>

  <rect x="82" y="96" width="1436" height="708" rx="38" fill="rgba(8,12,22,0.55)" stroke="rgba(255,255,255,0.14)"/>

  <g clip-path="url(#mainClip-9)">
    <path d="M-40 309 C360 219, 760 405, 1700 281" stroke="url(#accent-9)" stroke-width="2.2" fill="none"/>
    <path d="M-40 559 C420 489, 840 639, 1700 549" stroke="rgba(255,255,255,0.18)" stroke-width="1" fill="none"/>
    <rect x="0" y="588" width="1600" height="220" fill="rgba(255,255,255,0.025)"/>

    <g opacity="0.9">
      <circle cx="1204" cy="420" r="168" fill="none" stroke="rgba(255,255,255,0.3)" stroke-width="1.4"/>
      <circle cx="1204" cy="420" r="126" fill="none" stroke="#F0ABFC" stroke-width="2"/>
      <circle cx="1204" cy="420" r="86" fill="none" stroke="#38BDF8" stroke-width="1.6"/>
      <circle cx="1204" cy="420" r="32" fill="#A78BFA" fill-opacity="0.28"/>
      <circle cx="1272" cy="362" r="24" fill="#38BDF8" fill-opacity="0.5" filter="url(#blur-9)"/>
    </g>
  </g>

  <g>
    <rect x="132" y="146" width="262" height="56" rx="28" fill="rgba(255,255,255,0.02)" stroke="rgba(255,255,255,0.16)"/>
    <rect x="1208" y="146" width="268" height="56" rx="28" fill="rgba(255,255,255,0.02)" stroke="rgba(255,255,255,0.16)"/>
    <text x="168" y="182" font-family="Consolas, monospace" font-size="18" letter-spacing="3" fill="rgba(255,255,255,0.72)">SIGIDINGO BLOG</text>
    <text x="1248" y="182" font-family="Consolas, monospace" font-size="18" letter-spacing="3" fill="#38BDF8">ARTICLE 09</text>
  </g>

  <g>
    <text x="132" y="410" font-family="Sora, Arial, sans-serif" font-weight="700" font-size="80" letter-spacing="1.1" fill="rgba(255,255,255,0.98)">Portfolio Story</text>
    <text x="134" y="472" font-family="Consolas, monospace" font-size="20" letter-spacing="4" fill="rgba(255,255,255,0.58)">INSIGHTS  •  UX/UI  •  PRODUCT DESIGN</text>

    <rect x="132" y="530" width="480" height="10" rx="5" fill="rgba(255,255,255,0.12)"/>
    <rect x="132" y="530" width="360" height="10" rx="5" fill="#38BDF8"/>

    <rect x="132" y="562" width="380" height="10" rx="5" fill="rgba(255,255,255,0.12)"/>
    <rect x="132" y="562" width="276" height="10" rx="5" fill="#A78BFA"/>
  </g>

  <g transform="translate(1130,610)" filter="url(#inner-9)">
    <rect x="0" y="0" width="330" height="136" rx="20" fill="rgba(7,11,20,0.5)" stroke="rgba(255,255,255,0.16)"/>
    <text x="26" y="42" font-family="Consolas, monospace" font-size="15" letter-spacing="2.5" fill="rgba(255,255,255,0.65)">READ TIME</text>
    <text x="26" y="88" font-family="Sora, Arial, sans-serif" font-weight="600" font-size="34" fill="#F0ABFC">7 min</text>
    <line x1="168" y1="26" x2="168" y2="110" stroke="rgba(255,255,255,0.12)"/>
    <text x="190" y="42" font-family="Consolas, monospace" font-size="15" letter-spacing="2.5" fill="rgba(255,255,255,0.65)">TOPIC</text>
    <text x="190" y="88" font-family="Sora, Arial, sans-serif" font-weight="600" font-size="26" fill="rgba(255,255,255,0.94)">Design</text>
  </g>

  <text x="132" y="746" font-family="Consolas, monospace" font-size="17" letter-spacing="3" fill="rgba(255,255,255,0.6)">COVER FORMAT 1600x900</text>
</svg>
