<?xml version="1.0" encoding="UTF-8"?>
<svg xmlns="http://www.w3.org/2000/svg" width="1600" height="900" viewBox="0 0 1600 900">
  <defs>
    <linearGradient id="bg-pricing-ux" x1="0" y1="0" x2="1" y2="1">
      <stop offset="0%" stop-color="#0b1116"/>
      <stop offset="60%" stop-color="#0f172a"/>
      <stop offset="100%" stop-color="#1f2937"/>
    </linearGradient>
    <radialGradient id="glow-pricing-ux" cx="0.75" cy="0.2" r="0.9">
      <stop offset="0%" stop-color="#34d399" stop-opacity="0.45"/>
      <stop offset="100%" stop-color="#34d399" stop-opacity="0"/>
    </radialGradient>
  </defs>
  <rect width="1600" height="900" fill="url(#bg-pricing-ux)"/>
  <rect width="1600" height="900" fill="url(#glow-pricing-ux)"/>
  <g stroke="rgba(255,255,255,0.05)" stroke-width="1">
    <line x1="0" y1="0" x2="0" y2="900"/>
    <line x1="160" y1="0" x2="160" y2="900"/>
    <line x1="320" y1="0" x2="320" y2="900"/>
    <line x1="480" y1="0" x2="480" y2="900"/>
    <line x1="640" y1="0" x2="640" y2="900"/>
    <line x1="800" y1="0" x2="800" y2="900"/>
    <line x1="960" y1="0" x2="960" y2="900"/>
    <line x1="1120" y1="0" x2="1120" y2="900"/>
    <line x1="1280" y1="0" x2="1280" y2="900"/>
    <line x1="1440" y1="0" x2="1440" y2="900"/>
    <line x1="1600" y1="0" x2="1600" y2="900"/>
    <line x1="0" y1="0" x2="1600" y2="0"/>
    <line x1="0" y1="120" x2="1600" y2="120"/>
    <line x1="0" y1="240" x2="1600" y2="240"/>
    <line x1="0" y1="360" x2="1600" y2="360"/>
    <line x1="0" y1="480" x2="1600" y2="480"/>
    <line x1="0" y1="600" x2="1600" y2="600"/>
    <line x1="0" y1="720" x2="1600" y2="720"/>
    <line x1="0" y1="840" x2="1600" y2="840"/>
  </g>
  <g fill="none" stroke="#34d399" stroke-width="2" opacity="0.55">
    <path d="M 600.8 582.6 A 266.3 266.3 0 0 1 607.5 260.3"/>
    <path d="M 1357.7 857.3 A 313.8 313.8 0 0 1 1133.2 935.4"/>
    <path d="M 832.1 234.6 A 279.6 279.6 0 0 1 875.7 8.9"/>
  </g>
  <g stroke="rgba(255,255,255,0.12)" stroke-width="2">
    <line x1="39.8" y1="70.9" x2="1261.0" y2="-95.1"/>
    <line x1="394.3" y1="171.5" x2="1606.4" y2="-358.9"/>
    <line x1="271.8" y1="237.8" x2="1707.8" y2="-382.9"/>
    <line x1="-7.0" y1="388.4" x2="944.3" y2="-106.7"/>
    <line x1="-78.2" y1="410.7" x2="935.4" y2="27.9"/>
  </g>
  <g fill="none" stroke="rgba(255,255,255,0.18)" stroke-width="2">
    <rect x="587.5" y="599.8" width="257.8" height="193.6" rx="18"/>
    <rect x="929.7" y="86.3" width="163.6" height="119.2" rx="18"/>
    <rect x="146.5" y="438.3" width="150.2" height="197.3" rx="18"/>
    <rect x="410.3" y="273.9" width="162.9" height="166.2" rx="18"/>
  </g>
  <g fill="#34d399" opacity="0.22">
    <rect x="378.6" y="536.7" width="282.4" height="54.7" rx="27.4"/>
    <rect x="1067.4" y="129.4" width="199.2" height="39.0" rx="19.5"/>
    <rect x="656.7" y="533.6" width="278.3" height="39.5" rx="19.7"/>
    <rect x="1151.3" y="269.4" width="150.0" height="40.9" rx="20.4"/>
  </g>
  <text x="100" y="140" font-family="Sora, sans-serif" font-size="44" fill="rgba(255,255,255,0.9)" letter-spacing="2">Цены и UX</text>
  <text x="100" y="190" font-family="IBM Plex Mono, monospace" font-size="14" fill="rgba(255,255,255,0.6)" letter-spacing="4">SIGIDINGO / BLOG</text>
</svg>