<?xml version="1.0" encoding="UTF-8"?>
<svg xmlns="http://www.w3.org/2000/svg" width="1600" height="900" viewBox="0 0 1600 900">
<title>Product Metrics — cover</title>
<rect width="1600" height="900" fill="#000000"/>
<rect x="282" y="382" width="22" height="11" fill="#e8e8e8" shape-rendering="crispEdges"/>
<rect x="282" y="393" width="22" height="11" fill="#e8e8e8" shape-rendering="crispEdges"/>
<rect x="282" y="404" width="22" height="11" fill="#e8e8e8" shape-rendering="crispEdges"/>
<rect x="359" y="404" width="22" height="11" fill="#e8e8e8" shape-rendering="crispEdges"/>
<rect x="282" y="415" width="22" height="11" fill="#e8e8e8" shape-rendering="crispEdges"/>
<rect x="359" y="415" width="22" height="11" fill="#e8e8e8" shape-rendering="crispEdges"/>
<rect x="282" y="426" width="22" height="11" fill="#e8e8e8" shape-rendering="crispEdges"/>
<rect x="359" y="426" width="22" height="11" fill="#e8e8e8" shape-rendering="crispEdges"/>
<rect x="282" y="437" width="22" height="11" fill="#e8e8e8" shape-rendering="crispEdges"/>
<rect x="315" y="437" width="22" height="11" fill="#e8e8e8" shape-rendering="crispEdges"/>
<rect x="359" y="437" width="22" height="11" fill="#e8e8e8" shape-rendering="crispEdges"/>
<rect x="282" y="448" width="22" height="11" fill="#e8e8e8" shape-rendering="crispEdges"/>
<rect x="315" y="448" width="22" height="11" fill="#e8e8e8" shape-rendering="crispEdges"/>
<rect x="359" y="448" width="22" height="11" fill="#e8e8e8" shape-rendering="crispEdges"/>
<rect x="282" y="459" width="22" height="11" fill="#e8e8e8" shape-rendering="crispEdges"/>
<rect x="315" y="459" width="22" height="11" fill="#e8e8e8" shape-rendering="crispEdges"/>
<rect x="359" y="459" width="22" height="11" fill="#e8e8e8" shape-rendering="crispEdges"/>
<rect x="403" y="459" width="22" height="11" fill="#e8e8e8" shape-rendering="crispEdges"/>
<rect x="282" y="470" width="22" height="11" fill="#e8e8e8" shape-rendering="crispEdges"/>
<rect x="315" y="470" width="22" height="11" fill="#e8e8e8" shape-rendering="crispEdges"/>
<rect x="359" y="470" width="22" height="11" fill="#e8e8e8" shape-rendering="crispEdges"/>
<rect x="403" y="470" width="22" height="11" fill="#e8e8e8" shape-rendering="crispEdges"/>
<rect x="282" y="481" width="22" height="11" fill="#e8e8e8" shape-rendering="crispEdges"/>
<rect x="315" y="481" width="22" height="11" fill="#e8e8e8" shape-rendering="crispEdges"/>
<rect x="359" y="481" width="22" height="11" fill="#e8e8e8" shape-rendering="crispEdges"/>
<rect x="403" y="481" width="22" height="11" fill="#e8e8e8" shape-rendering="crispEdges"/>
<rect x="282" y="492" width="22" height="11" fill="#e8e8e8" shape-rendering="crispEdges"/>
<rect x="315" y="492" width="22" height="11" fill="#e8e8e8" shape-rendering="crispEdges"/>
<rect x="359" y="492" width="22" height="11" fill="#e8e8e8" shape-rendering="crispEdges"/>
<rect x="403" y="492" width="22" height="11" fill="#e8e8e8" shape-rendering="crispEdges"/>
<rect x="260" y="503" width="154" height="11" fill="#e8e8e8" shape-rendering="crispEdges"/>
<rect x="260" y="514" width="154" height="11" fill="#e8e8e8" shape-rendering="crispEdges"/>
<rect x="692" y="382" width="33" height="11" fill="#e8e8e8" shape-rendering="crispEdges"/>
<rect x="670" y="393" width="33" height="11" fill="#e8e8e8" shape-rendering="crispEdges"/>
<rect x="648" y="404" width="33" height="11" fill="#e8e8e8" shape-rendering="crispEdges"/>
<rect x="626" y="415" width="33" height="11" fill="#e8e8e8" shape-rendering="crispEdges"/>
<rect x="604" y="426" width="33" height="11" fill="#e8e8e8" shape-rendering="crispEdges"/>
<rect x="593" y="437" width="22" height="11" fill="#e8e8e8" shape-rendering="crispEdges"/>
<rect x="593" y="448" width="22" height="11" fill="#e8e8e8" shape-rendering="crispEdges"/>
<rect x="593" y="459" width="22" height="11" fill="#e8e8e8" shape-rendering="crispEdges"/>
<rect x="593" y="470" width="22" height="11" fill="#e8e8e8" shape-rendering="crispEdges"/>
<rect x="593" y="481" width="22" height="11" fill="#e8e8e8" shape-rendering="crispEdges"/>
<rect x="560" y="492" width="165" height="11" fill="#e8e8e8" shape-rendering="crispEdges"/>
<rect x="725" y="503" width="11" height="11" fill="#e8e8e8" shape-rendering="crispEdges"/>
<rect x="915" y="371" width="66" height="11" fill="#e8e8e8" shape-rendering="crispEdges"/>
<rect x="893" y="382" width="110" height="11" fill="#e8e8e8" shape-rendering="crispEdges"/>
<rect x="882" y="393" width="44" height="11" fill="#e8e8e8" shape-rendering="crispEdges"/>
<rect x="970" y="393" width="44" height="11" fill="#e8e8e8" shape-rendering="crispEdges"/>
<rect x="882" y="404" width="33" height="11" fill="#e8e8e8" shape-rendering="crispEdges"/>
<rect x="926" y="404" width="44" height="11" fill="#e8e8e8" shape-rendering="crispEdges"/>
<rect x="981" y="404" width="33" height="11" fill="#e8e8e8" shape-rendering="crispEdges"/>
<rect x="871" y="415" width="33" height="11" fill="#e8e8e8" shape-rendering="crispEdges"/>
<rect x="915" y="415" width="66" height="11" fill="#e8e8e8" shape-rendering="crispEdges"/>
<rect x="992" y="415" width="33" height="11" fill="#e8e8e8" shape-rendering="crispEdges"/>
<rect x="871" y="426" width="33" height="11" fill="#e8e8e8" shape-rendering="crispEdges"/>
<rect x="915" y="426" width="22" height="11" fill="#e8e8e8" shape-rendering="crispEdges"/>
<rect x="959" y="426" width="22" height="11" fill="#e8e8e8" shape-rendering="crispEdges"/>
<rect x="992" y="426" width="33" height="11" fill="#e8e8e8" shape-rendering="crispEdges"/>
<rect x="871" y="437" width="33" height="11" fill="#e8e8e8" shape-rendering="crispEdges"/>
<rect x="915" y="437" width="22" height="11" fill="#e8e8e8" shape-rendering="crispEdges"/>
<rect x="959" y="437" width="22" height="11" fill="#e8e8e8" shape-rendering="crispEdges"/>
<rect x="992" y="437" width="33" height="11" fill="#e8e8e8" shape-rendering="crispEdges"/>
<rect x="871" y="448" width="33" height="11" fill="#e8e8e8" shape-rendering="crispEdges"/>
<rect x="915" y="448" width="66" height="11" fill="#e8e8e8" shape-rendering="crispEdges"/>
<rect x="992" y="448" width="33" height="11" fill="#e8e8e8" shape-rendering="crispEdges"/>
<rect x="882" y="459" width="33" height="11" fill="#e8e8e8" shape-rendering="crispEdges"/>
<rect x="926" y="459" width="44" height="11" fill="#e8e8e8" shape-rendering="crispEdges"/>
<rect x="981" y="459" width="33" height="11" fill="#e8e8e8" shape-rendering="crispEdges"/>
<rect x="882" y="470" width="44" height="11" fill="#e8e8e8" shape-rendering="crispEdges"/>
<rect x="970" y="470" width="44" height="11" fill="#e8e8e8" shape-rendering="crispEdges"/>
<rect x="893" y="481" width="110" height="11" fill="#e8e8e8" shape-rendering="crispEdges"/>
<rect x="915" y="492" width="66" height="11" fill="#e8e8e8" shape-rendering="crispEdges"/>
<rect x="1325" y="382" width="11" height="11" fill="#e8e8e8" shape-rendering="crispEdges"/>
<rect x="1314" y="393" width="22" height="11" fill="#e8e8e8" shape-rendering="crispEdges"/>
<rect x="1303" y="404" width="22" height="11" fill="#e8e8e8" shape-rendering="crispEdges"/>
<rect x="1292" y="415" width="22" height="11" fill="#e8e8e8" shape-rendering="crispEdges"/>
<rect x="1281" y="426" width="22" height="11" fill="#e8e8e8" shape-rendering="crispEdges"/>
<rect x="1171" y="437" width="11" height="11" fill="#e8e8e8" shape-rendering="crispEdges"/>
<rect x="1270" y="437" width="22" height="11" fill="#e8e8e8" shape-rendering="crispEdges"/>
<rect x="1171" y="448" width="22" height="11" fill="#e8e8e8" shape-rendering="crispEdges"/>
<rect x="1259" y="448" width="22" height="11" fill="#e8e8e8" shape-rendering="crispEdges"/>
<rect x="1171" y="459" width="33" height="11" fill="#e8e8e8" shape-rendering="crispEdges"/>
<rect x="1248" y="459" width="22" height="11" fill="#e8e8e8" shape-rendering="crispEdges"/>
<rect x="1182" y="470" width="33" height="11" fill="#e8e8e8" shape-rendering="crispEdges"/>
<rect x="1237" y="470" width="22" height="11" fill="#e8e8e8" shape-rendering="crispEdges"/>
<rect x="1193" y="481" width="44" height="11" fill="#e8e8e8" shape-rendering="crispEdges"/>
<rect x="1204" y="492" width="33" height="11" fill="#e8e8e8" shape-rendering="crispEdges"/>
<rect x="1215" y="503" width="11" height="11" fill="#e8e8e8" shape-rendering="crispEdges"/>
</svg>
