<?xml version="1.0" encoding="UTF-8"?>
<svg xmlns="http://www.w3.org/2000/svg" width="1600" height="900" viewBox="0 0 1600 900">
  <defs>
    <linearGradient id="bg-systems-thinking" x1="0" y1="0" x2="1" y2="1">
      <stop offset="0%" stop-color="#0a0f14"/>
      <stop offset="60%" stop-color="#111827"/>
      <stop offset="100%" stop-color="#1f2937"/>
    </linearGradient>
    <radialGradient id="glow-systems-thinking" cx="0.75" cy="0.2" r="0.9">
      <stop offset="0%" stop-color="#f97316" stop-opacity="0.45"/>
      <stop offset="100%" stop-color="#f97316" stop-opacity="0"/>
    </radialGradient>
  </defs>
  <rect width="1600" height="900" fill="url(#bg-systems-thinking)"/>
  <rect width="1600" height="900" fill="url(#glow-systems-thinking)"/>
  <g stroke="rgba(255,255,255,0.05)" stroke-width="1">
    <line x1="0" y1="0" x2="0" y2="900"/>
    <line x1="160" y1="0" x2="160" y2="900"/>
    <line x1="320" y1="0" x2="320" y2="900"/>
    <line x1="480" y1="0" x2="480" y2="900"/>
    <line x1="640" y1="0" x2="640" y2="900"/>
    <line x1="800" y1="0" x2="800" y2="900"/>
    <line x1="960" y1="0" x2="960" y2="900"/>
    <line x1="1120" y1="0" x2="1120" y2="900"/>
    <line x1="1280" y1="0" x2="1280" y2="900"/>
    <line x1="1440" y1="0" x2="1440" y2="900"/>
    <line x1="1600" y1="0" x2="1600" y2="900"/>
    <line x1="0" y1="0" x2="1600" y2="0"/>
    <line x1="0" y1="120" x2="1600" y2="120"/>
    <line x1="0" y1="240" x2="1600" y2="240"/>
    <line x1="0" y1="360" x2="1600" y2="360"/>
    <line x1="0" y1="480" x2="1600" y2="480"/>
    <line x1="0" y1="600" x2="1600" y2="600"/>
    <line x1="0" y1="720" x2="1600" y2="720"/>
    <line x1="0" y1="840" x2="1600" y2="840"/>
  </g>
  <g fill="none" stroke="#f97316" stroke-width="2" opacity="0.5">
    <path d="M 938.0 406.0 A 219.1 219.1 0 0 1 771.6 443.1"/>
    <path d="M 289.5 866.2 A 280.0 280.0 0 0 1 137.4 799.2"/>
    <path d="M 720.2 593.2 A 155.3 155.3 0 0 1 569.3 662.5"/>
  </g>
  <g stroke="rgba(255,255,255,0.12)" stroke-width="2">
    <line x1="-32.3" y1="586.4" x2="986.6" y2="394.7"/>
    <line x1="18.4" y1="614.2" x2="1304.8" y2="86.6"/>
    <line x1="309.0" y1="385.0" x2="1786.3" y2="-95.8"/>
    <line x1="-25.6" y1="647.9" x2="1163.9" y2="88.3"/>
    <line x1="386.3" y1="58.7" x2="1541.7" y2="-94.5"/>
  </g>
  <g fill="none" stroke="rgba(255,255,255,0.18)" stroke-width="2">
    <rect x="307.6" y="666.6" width="331.4" height="118.2" rx="18"/>
    <rect x="633.4" y="521.4" width="225.7" height="114.4" rx="18"/>
    <rect x="760.7" y="152.8" width="140.1" height="199.8" rx="18"/>
    <rect x="919.2" y="354.1" width="281.6" height="198.8" rx="18"/>
  </g>
  <g fill="#f97316" opacity="0.22">
    <rect x="615.9" y="517.8" width="235.0" height="33.4" rx="16.7"/>
    <rect x="1035.9" y="396.8" width="236.5" height="34.5" rx="17.2"/>
    <rect x="568.5" y="319.3" width="315.5" height="49.0" rx="24.5"/>
    <rect x="83.6" y="474.2" width="310.6" height="34.2" rx="17.1"/>
  </g>
  <text x="100" y="140" font-family="Sora, sans-serif" font-size="44" fill="rgba(255,255,255,0.9)" letter-spacing="2">Системное мышление</text>
  <text x="100" y="190" font-family="IBM Plex Mono, monospace" font-size="14" fill="rgba(255,255,255,0.6)" letter-spacing="4">SIGIDINGO / BLOG</text>
</svg>