<?xml version="1.0" encoding="UTF-8"?>
<svg xmlns="http://www.w3.org/2000/svg" width="1600" height="900" viewBox="0 0 1600 900">
<title>Systems Thinking — cover</title>
<rect width="1600" height="900" fill="#000000"/>
<rect x="443" y="360" width="132" height="11" fill="#e8e8e8" shape-rendering="crispEdges"/>
<rect x="443" y="371" width="11" height="11" fill="#e8e8e8" shape-rendering="crispEdges"/>
<rect x="564" y="371" width="11" height="11" fill="#e8e8e8" shape-rendering="crispEdges"/>
<rect x="421" y="382" width="33" height="11" fill="#e8e8e8" shape-rendering="crispEdges"/>
<rect x="465" y="382" width="88" height="11" fill="#e8e8e8" shape-rendering="crispEdges"/>
<rect x="564" y="382" width="22" height="11" fill="#e8e8e8" shape-rendering="crispEdges"/>
<rect x="421" y="393" width="33" height="11" fill="#e8e8e8" shape-rendering="crispEdges"/>
<rect x="465" y="393" width="88" height="11" fill="#e8e8e8" shape-rendering="crispEdges"/>
<rect x="564" y="393" width="22" height="11" fill="#e8e8e8" shape-rendering="crispEdges"/>
<rect x="421" y="404" width="33" height="11" fill="#e8e8e8" shape-rendering="crispEdges"/>
<rect x="465" y="404" width="22" height="11" fill="#e8e8e8" shape-rendering="crispEdges"/>
<rect x="531" y="404" width="22" height="11" fill="#e8e8e8" shape-rendering="crispEdges"/>
<rect x="564" y="404" width="22" height="11" fill="#e8e8e8" shape-rendering="crispEdges"/>
<rect x="421" y="415" width="33" height="11" fill="#e8e8e8" shape-rendering="crispEdges"/>
<rect x="465" y="415" width="22" height="11" fill="#e8e8e8" shape-rendering="crispEdges"/>
<rect x="531" y="415" width="22" height="11" fill="#e8e8e8" shape-rendering="crispEdges"/>
<rect x="564" y="415" width="22" height="11" fill="#e8e8e8" shape-rendering="crispEdges"/>
<rect x="421" y="426" width="33" height="11" fill="#e8e8e8" shape-rendering="crispEdges"/>
<rect x="465" y="426" width="22" height="11" fill="#e8e8e8" shape-rendering="crispEdges"/>
<rect x="531" y="426" width="22" height="11" fill="#e8e8e8" shape-rendering="crispEdges"/>
<rect x="564" y="426" width="22" height="11" fill="#e8e8e8" shape-rendering="crispEdges"/>
<rect x="421" y="437" width="33" height="11" fill="#e8e8e8" shape-rendering="crispEdges"/>
<rect x="465" y="437" width="22" height="11" fill="#e8e8e8" shape-rendering="crispEdges"/>
<rect x="531" y="437" width="22" height="11" fill="#e8e8e8" shape-rendering="crispEdges"/>
<rect x="564" y="437" width="22" height="11" fill="#e8e8e8" shape-rendering="crispEdges"/>
<rect x="421" y="448" width="33" height="11" fill="#e8e8e8" shape-rendering="crispEdges"/>
<rect x="465" y="448" width="88" height="11" fill="#e8e8e8" shape-rendering="crispEdges"/>
<rect x="564" y="448" width="22" height="11" fill="#e8e8e8" shape-rendering="crispEdges"/>
<rect x="421" y="459" width="33" height="11" fill="#e8e8e8" shape-rendering="crispEdges"/>
<rect x="465" y="459" width="88" height="11" fill="#e8e8e8" shape-rendering="crispEdges"/>
<rect x="564" y="459" width="22" height="11" fill="#e8e8e8" shape-rendering="crispEdges"/>
<rect x="443" y="470" width="11" height="11" fill="#e8e8e8" shape-rendering="crispEdges"/>
<rect x="564" y="470" width="11" height="11" fill="#e8e8e8" shape-rendering="crispEdges"/>
<rect x="443" y="481" width="132" height="11" fill="#e8e8e8" shape-rendering="crispEdges"/>
<rect x="454" y="492" width="22" height="11" fill="#e8e8e8" shape-rendering="crispEdges"/>
<rect x="520" y="492" width="22" height="11" fill="#e8e8e8" shape-rendering="crispEdges"/>
<rect x="454" y="503" width="22" height="11" fill="#e8e8e8" shape-rendering="crispEdges"/>
<rect x="520" y="503" width="22" height="11" fill="#e8e8e8" shape-rendering="crispEdges"/>
<rect x="765" y="371" width="66" height="11" fill="#e8e8e8" shape-rendering="crispEdges"/>
<rect x="754" y="382" width="88" height="11" fill="#e8e8e8" shape-rendering="crispEdges"/>
<rect x="743" y="393" width="110" height="11" fill="#e8e8e8" shape-rendering="crispEdges"/>
<rect x="732" y="404" width="132" height="11" fill="#e8e8e8" shape-rendering="crispEdges"/>
<rect x="721" y="415" width="154" height="11" fill="#e8e8e8" shape-rendering="crispEdges"/>
<rect x="721" y="426" width="154" height="11" fill="#e8e8e8" shape-rendering="crispEdges"/>
<rect x="721" y="437" width="154" height="11" fill="#e8e8e8" shape-rendering="crispEdges"/>
<rect x="721" y="448" width="154" height="11" fill="#e8e8e8" shape-rendering="crispEdges"/>
<rect x="721" y="459" width="154" height="11" fill="#e8e8e8" shape-rendering="crispEdges"/>
<rect x="732" y="470" width="132" height="11" fill="#e8e8e8" shape-rendering="crispEdges"/>
<rect x="743" y="481" width="110" height="11" fill="#e8e8e8" shape-rendering="crispEdges"/>
<rect x="754" y="492" width="88" height="11" fill="#e8e8e8" shape-rendering="crispEdges"/>
<rect x="765" y="503" width="66" height="11" fill="#e8e8e8" shape-rendering="crispEdges"/>
<rect x="1076" y="360" width="44" height="11" fill="#e8e8e8" shape-rendering="crispEdges"/>
<rect x="1076" y="371" width="44" height="11" fill="#e8e8e8" shape-rendering="crispEdges"/>
<rect x="1043" y="382" width="110" height="11" fill="#e8e8e8" shape-rendering="crispEdges"/>
<rect x="1021" y="393" width="33" height="11" fill="#e8e8e8" shape-rendering="crispEdges"/>
<rect x="1142" y="393" width="33" height="11" fill="#e8e8e8" shape-rendering="crispEdges"/>
<rect x="1021" y="404" width="22" height="11" fill="#e8e8e8" shape-rendering="crispEdges"/>
<rect x="1065" y="404" width="66" height="11" fill="#e8e8e8" shape-rendering="crispEdges"/>
<rect x="1153" y="404" width="22" height="11" fill="#e8e8e8" shape-rendering="crispEdges"/>
<rect x="1021" y="415" width="22" height="11" fill="#e8e8e8" shape-rendering="crispEdges"/>
<rect x="1054" y="415" width="88" height="11" fill="#e8e8e8" shape-rendering="crispEdges"/>
<rect x="1153" y="415" width="22" height="11" fill="#e8e8e8" shape-rendering="crispEdges"/>
<rect x="1010" y="426" width="44" height="11" fill="#e8e8e8" shape-rendering="crispEdges"/>
<rect x="1065" y="426" width="66" height="11" fill="#e8e8e8" shape-rendering="crispEdges"/>
<rect x="1142" y="426" width="44" height="11" fill="#e8e8e8" shape-rendering="crispEdges"/>
<rect x="1010" y="437" width="44" height="11" fill="#e8e8e8" shape-rendering="crispEdges"/>
<rect x="1076" y="437" width="44" height="11" fill="#e8e8e8" shape-rendering="crispEdges"/>
<rect x="1142" y="437" width="44" height="11" fill="#e8e8e8" shape-rendering="crispEdges"/>
<rect x="1010" y="448" width="44" height="11" fill="#e8e8e8" shape-rendering="crispEdges"/>
<rect x="1076" y="448" width="44" height="11" fill="#e8e8e8" shape-rendering="crispEdges"/>
<rect x="1142" y="448" width="44" height="11" fill="#e8e8e8" shape-rendering="crispEdges"/>
<rect x="1010" y="459" width="44" height="11" fill="#e8e8e8" shape-rendering="crispEdges"/>
<rect x="1065" y="459" width="66" height="11" fill="#e8e8e8" shape-rendering="crispEdges"/>
<rect x="1142" y="459" width="44" height="11" fill="#e8e8e8" shape-rendering="crispEdges"/>
<rect x="1021" y="470" width="22" height="11" fill="#e8e8e8" shape-rendering="crispEdges"/>
<rect x="1054" y="470" width="88" height="11" fill="#e8e8e8" shape-rendering="crispEdges"/>
<rect x="1153" y="470" width="22" height="11" fill="#e8e8e8" shape-rendering="crispEdges"/>
<rect x="1021" y="481" width="22" height="11" fill="#e8e8e8" shape-rendering="crispEdges"/>
<rect x="1065" y="481" width="66" height="11" fill="#e8e8e8" shape-rendering="crispEdges"/>
<rect x="1153" y="481" width="22" height="11" fill="#e8e8e8" shape-rendering="crispEdges"/>
<rect x="1021" y="492" width="33" height="11" fill="#e8e8e8" shape-rendering="crispEdges"/>
<rect x="1142" y="492" width="33" height="11" fill="#e8e8e8" shape-rendering="crispEdges"/>
<rect x="1043" y="503" width="110" height="11" fill="#e8e8e8" shape-rendering="crispEdges"/>
<rect x="1076" y="514" width="44" height="11" fill="#e8e8e8" shape-rendering="crispEdges"/>
<rect x="1076" y="525" width="44" height="11" fill="#e8e8e8" shape-rendering="crispEdges"/>
</svg>
