<?xml version="1.0" encoding="UTF-8"?>
<svg xmlns="http://www.w3.org/2000/svg" width="1600" height="900" viewBox="0 0 1600 900">
  <defs>
    <linearGradient id="bg-ux-audit" x1="0" y1="0" x2="1" y2="1">
      <stop offset="0%" stop-color="#0b0f1a"/>
      <stop offset="55%" stop-color="#0f172a"/>
      <stop offset="100%" stop-color="#111827"/>
    </linearGradient>
    <radialGradient id="glow-ux-audit" cx="0.15" cy="0.25" r="0.75">
      <stop offset="0%" stop-color="#34d399" stop-opacity="0.45"/>
      <stop offset="100%" stop-color="#34d399" stop-opacity="0"/>
    </radialGradient>
  </defs>
  <rect width="1600" height="900" fill="url(#bg-ux-audit)"/>
  <rect width="1600" height="900" fill="url(#glow-ux-audit)"/>
  <g stroke="rgba(255,255,255,0.05)" stroke-width="1">
    <line x1="0" y1="0" x2="0" y2="900"/>
    <line x1="160" y1="0" x2="160" y2="900"/>
    <line x1="320" y1="0" x2="320" y2="900"/>
    <line x1="480" y1="0" x2="480" y2="900"/>
    <line x1="640" y1="0" x2="640" y2="900"/>
    <line x1="800" y1="0" x2="800" y2="900"/>
    <line x1="960" y1="0" x2="960" y2="900"/>
    <line x1="1120" y1="0" x2="1120" y2="900"/>
    <line x1="1280" y1="0" x2="1280" y2="900"/>
    <line x1="1440" y1="0" x2="1440" y2="900"/>
    <line x1="1600" y1="0" x2="1600" y2="900"/>
    <line x1="0" y1="0" x2="1600" y2="0"/>
    <line x1="0" y1="150" x2="1600" y2="150"/>
    <line x1="0" y1="300" x2="1600" y2="300"/>
    <line x1="0" y1="450" x2="1600" y2="450"/>
    <line x1="0" y1="600" x2="1600" y2="600"/>
    <line x1="0" y1="750" x2="1600" y2="750"/>
    <line x1="0" y1="900" x2="1600" y2="900"/>
  </g>
  <g fill="none" stroke="rgba(255,255,255,0.22)" stroke-width="2">
    <rect x="140" y="180" width="380" height="220" rx="20"/>
    <rect x="260" y="260" width="420" height="240" rx="28"/>
    <rect x="860" y="150" width="540" height="320" rx="26"/>
    <rect x="980" y="520" width="420" height="200" rx="22"/>
  </g>
  <g stroke="#34d399" stroke-width="2" opacity="0.65" fill="none">
    <path d="M 230 660 C 360 540 480 520 620 560"/>
    <path d="M 260 620 C 380 470 520 470 700 520"/>
    <path d="M 980 290 C 1110 230 1250 230 1400 270"/>
  </g>
  <g fill="#34d399" opacity="0.2">
    <circle cx="340" cy="260" r="56"/>
    <circle cx="1180" cy="340" r="68"/>
    <circle cx="1150" cy="640" r="42"/>
    <rect x="200" y="520" width="220" height="36" rx="18"/>
    <rect x="980" y="210" width="300" height="30" rx="15"/>
  </g>
  <g stroke="rgba(255,255,255,0.16)" stroke-width="2">
    <line x1="120" y1="520" x2="620" y2="520"/>
    <line x1="680" y1="650" x2="1460" y2="420"/>
    <line x1="760" y1="120" x2="1460" y2="120"/>
  </g>
  <text x="100" y="130" font-family="Sora, sans-serif" font-size="44" fill="rgba(255,255,255,0.9)" letter-spacing="2">UX Audit</text>
  <text x="100" y="180" font-family="IBM Plex Mono, monospace" font-size="14" fill="rgba(255,255,255,0.6)" letter-spacing="4">SIGIDINGO / BLOG</text>
</svg>
