<?xml version="1.0" encoding="UTF-8"?>
<svg xmlns="http://www.w3.org/2000/svg" width="1600" height="900" viewBox="0 0 1600 900">
<title>UX Onboarding — cover</title>
<rect width="1600" height="900" fill="#000000"/>
<rect x="410" y="360" width="11" height="11" fill="#e8e8e8" shape-rendering="crispEdges"/>
<rect x="410" y="371" width="22" height="11" fill="#e8e8e8" shape-rendering="crispEdges"/>
<rect x="410" y="382" width="33" height="11" fill="#e8e8e8" shape-rendering="crispEdges"/>
<rect x="410" y="393" width="44" height="11" fill="#e8e8e8" shape-rendering="crispEdges"/>
<rect x="410" y="404" width="55" height="11" fill="#e8e8e8" shape-rendering="crispEdges"/>
<rect x="410" y="415" width="66" height="11" fill="#e8e8e8" shape-rendering="crispEdges"/>
<rect x="410" y="426" width="77" height="11" fill="#e8e8e8" shape-rendering="crispEdges"/>
<rect x="410" y="437" width="88" height="11" fill="#e8e8e8" shape-rendering="crispEdges"/>
<rect x="410" y="448" width="99" height="11" fill="#e8e8e8" shape-rendering="crispEdges"/>
<rect x="410" y="459" width="110" height="11" fill="#e8e8e8" shape-rendering="crispEdges"/>
<rect x="410" y="470" width="55" height="11" fill="#e8e8e8" shape-rendering="crispEdges"/>
<rect x="476" y="470" width="22" height="11" fill="#e8e8e8" shape-rendering="crispEdges"/>
<rect x="410" y="481" width="55" height="11" fill="#e8e8e8" shape-rendering="crispEdges"/>
<rect x="487" y="481" width="22" height="11" fill="#e8e8e8" shape-rendering="crispEdges"/>
<rect x="410" y="492" width="55" height="11" fill="#e8e8e8" shape-rendering="crispEdges"/>
<rect x="875" y="382" width="11" height="11" fill="#e8e8e8" shape-rendering="crispEdges"/>
<rect x="864" y="393" width="22" height="11" fill="#e8e8e8" shape-rendering="crispEdges"/>
<rect x="853" y="404" width="22" height="11" fill="#e8e8e8" shape-rendering="crispEdges"/>
<rect x="842" y="415" width="22" height="11" fill="#e8e8e8" shape-rendering="crispEdges"/>
<rect x="831" y="426" width="22" height="11" fill="#e8e8e8" shape-rendering="crispEdges"/>
<rect x="721" y="437" width="11" height="11" fill="#e8e8e8" shape-rendering="crispEdges"/>
<rect x="820" y="437" width="22" height="11" fill="#e8e8e8" shape-rendering="crispEdges"/>
<rect x="721" y="448" width="22" height="11" fill="#e8e8e8" shape-rendering="crispEdges"/>
<rect x="809" y="448" width="22" height="11" fill="#e8e8e8" shape-rendering="crispEdges"/>
<rect x="721" y="459" width="33" height="11" fill="#e8e8e8" shape-rendering="crispEdges"/>
<rect x="798" y="459" width="22" height="11" fill="#e8e8e8" shape-rendering="crispEdges"/>
<rect x="732" y="470" width="33" height="11" fill="#e8e8e8" shape-rendering="crispEdges"/>
<rect x="787" y="470" width="22" height="11" fill="#e8e8e8" shape-rendering="crispEdges"/>
<rect x="743" y="481" width="44" height="11" fill="#e8e8e8" shape-rendering="crispEdges"/>
<rect x="754" y="492" width="33" height="11" fill="#e8e8e8" shape-rendering="crispEdges"/>
<rect x="765" y="503" width="11" height="11" fill="#e8e8e8" shape-rendering="crispEdges"/>
<rect x="1098" y="360" width="11" height="11" fill="#e8e8e8" shape-rendering="crispEdges"/>
<rect x="1087" y="371" width="33" height="11" fill="#e8e8e8" shape-rendering="crispEdges"/>
<rect x="1087" y="382" width="33" height="11" fill="#e8e8e8" shape-rendering="crispEdges"/>
<rect x="1076" y="393" width="55" height="11" fill="#e8e8e8" shape-rendering="crispEdges"/>
<rect x="1076" y="404" width="55" height="11" fill="#e8e8e8" shape-rendering="crispEdges"/>
<rect x="1065" y="415" width="77" height="11" fill="#e8e8e8" shape-rendering="crispEdges"/>
<rect x="1054" y="426" width="99" height="11" fill="#e8e8e8" shape-rendering="crispEdges"/>
<rect x="1021" y="437" width="132" height="11" fill="#e8e8e8" shape-rendering="crispEdges"/>
<rect x="1021" y="448" width="132" height="11" fill="#e8e8e8" shape-rendering="crispEdges"/>
<rect x="1054" y="459" width="77" height="11" fill="#e8e8e8" shape-rendering="crispEdges"/>
<rect x="1043" y="470" width="99" height="11" fill="#e8e8e8" shape-rendering="crispEdges"/>
<rect x="1043" y="481" width="33" height="11" fill="#e8e8e8" shape-rendering="crispEdges"/>
<rect x="1109" y="481" width="33" height="11" fill="#e8e8e8" shape-rendering="crispEdges"/>
<rect x="1032" y="492" width="33" height="11" fill="#e8e8e8" shape-rendering="crispEdges"/>
<rect x="1120" y="492" width="33" height="11" fill="#e8e8e8" shape-rendering="crispEdges"/>
<rect x="1021" y="503" width="33" height="11" fill="#e8e8e8" shape-rendering="crispEdges"/>
<rect x="1131" y="503" width="33" height="11" fill="#e8e8e8" shape-rendering="crispEdges"/>
</svg>
