<?xml version="1.0" encoding="UTF-8"?>
<svg xmlns="http://www.w3.org/2000/svg" width="1600" height="900" viewBox="0 0 1600 900">
  <defs>
    <linearGradient id="bg-ux-research-lite" x1="0" y1="0" x2="1" y2="1">
      <stop offset="0%" stop-color="#0b0f14"/>
      <stop offset="60%" stop-color="#0f172a"/>
      <stop offset="100%" stop-color="#1f2937"/>
    </linearGradient>
    <radialGradient id="glow-ux-research-lite" cx="0.75" cy="0.2" r="0.9">
      <stop offset="0%" stop-color="#14b8a6" stop-opacity="0.45"/>
      <stop offset="100%" stop-color="#14b8a6" stop-opacity="0"/>
    </radialGradient>
  </defs>
  <rect width="1600" height="900" fill="url(#bg-ux-research-lite)"/>
  <rect width="1600" height="900" fill="url(#glow-ux-research-lite)"/>
  <g stroke="rgba(255,255,255,0.05)" stroke-width="1">
    <line x1="0" y1="0" x2="0" y2="900"/>
    <line x1="160" y1="0" x2="160" y2="900"/>
    <line x1="320" y1="0" x2="320" y2="900"/>
    <line x1="480" y1="0" x2="480" y2="900"/>
    <line x1="640" y1="0" x2="640" y2="900"/>
    <line x1="800" y1="0" x2="800" y2="900"/>
    <line x1="960" y1="0" x2="960" y2="900"/>
    <line x1="1120" y1="0" x2="1120" y2="900"/>
    <line x1="1280" y1="0" x2="1280" y2="900"/>
    <line x1="1440" y1="0" x2="1440" y2="900"/>
    <line x1="1600" y1="0" x2="1600" y2="900"/>
    <line x1="0" y1="0" x2="1600" y2="0"/>
    <line x1="0" y1="120" x2="1600" y2="120"/>
    <line x1="0" y1="240" x2="1600" y2="240"/>
    <line x1="0" y1="360" x2="1600" y2="360"/>
    <line x1="0" y1="480" x2="1600" y2="480"/>
    <line x1="0" y1="600" x2="1600" y2="600"/>
    <line x1="0" y1="720" x2="1600" y2="720"/>
    <line x1="0" y1="840" x2="1600" y2="840"/>
  </g>
  <g fill="none" stroke="#14b8a6" stroke-width="2" opacity="0.5">
    <path d="M 1039.9 778.8 A 166.0 166.0 0 0 1 901.7 809.5"/>
    <path d="M 1001.2 343.6 A 164.7 164.7 0 0 1 1111.9 142.2"/>
    <path d="M 1293.8 351.5 A 269.8 269.8 0 0 1 1028.9 530.2"/>
  </g>
  <g stroke="rgba(255,255,255,0.12)" stroke-width="2">
    <line x1="232.6" y1="669.4" x2="1144.0" y2="49.3"/>
    <line x1="267.7" y1="409.5" x2="1754.0" y2="-165.0"/>
    <line x1="311.9" y1="200.2" x2="1733.5" y2="-70.6"/>
    <line x1="134.8" y1="779.1" x2="1381.6" y2="289.1"/>
    <line x1="-99.1" y1="73.9" x2="1185.2" y2="-340.3"/>
  </g>
  <g fill="none" stroke="rgba(255,255,255,0.18)" stroke-width="2">
    <rect x="396.3" y="547.3" width="284.2" height="126.3" rx="18"/>
    <rect x="407.9" y="559.1" width="229.2" height="105.8" rx="18"/>
    <rect x="812.9" y="297.4" width="365.7" height="175.0" rx="18"/>
    <rect x="1243.2" y="126.9" width="231.1" height="203.7" rx="18"/>
  </g>
  <g fill="#14b8a6" opacity="0.22">
    <rect x="493.9" y="649.9" width="140.4" height="53.9" rx="27.0"/>
    <rect x="356.3" y="501.2" width="137.3" height="47.9" rx="23.9"/>
    <rect x="1180.2" y="617.0" width="164.7" height="45.5" rx="22.7"/>
    <rect x="154.4" y="273.4" width="256.2" height="46.9" rx="23.5"/>
  </g>
  <text x="100" y="140" font-family="Sora, sans-serif" font-size="44" fill="rgba(255,255,255,0.9)" letter-spacing="2">UX-ресёрч</text>
  <text x="100" y="190" font-family="IBM Plex Mono, monospace" font-size="14" fill="rgba(255,255,255,0.6)" letter-spacing="4">SIGIDINGO / BLOG</text>
</svg>